<?xml version="1.0" encoding="utf-8"?>
<!-- Generator: Adobe Illustrator 27.5.0, SVG Export Plug-In . SVG Version: 6.00 Build 0)  -->
<svg version="1.1" xmlns="http://www.w3.org/2000/svg" xmlns:xlink="http://www.w3.org/1999/xlink" x="0px" y="0px"
	viewBox="0 0 500 500" xml:space="preserve">

	<g id="OBJECTS">
		<circle style="opacity:0.52;fill:#D4F0F5;" cx="250" cy="250" r="221.617" />
		<g>
			<g style="opacity:0.79;">
				<g>
					<g>
						<path style="fill:#FFFFFF;" d="M274.274,86.611c2.64,2.642,2.64,6.926,0,9.568c-2.64,2.642-6.921,2.642-9.561,0
						c-2.64-2.642-2.64-6.926,0-9.568C267.353,83.969,271.634,83.969,274.274,86.611z" />
					</g>
					<g>
						<path style="fill:#FFFFFF;" d="M274.274,108.197c2.64,2.642,2.64,6.926,0,9.568c-2.64,2.642-6.921,2.642-9.561,0
						c-2.64-2.642-2.64-6.926,0-9.568C267.353,105.555,271.634,105.555,274.274,108.197z" />
					</g>
					<g>
						<path style="fill:#FFFFFF;" d="M274.274,129.783c2.64,2.642,2.64,6.926,0,9.568c-2.64,2.642-6.921,2.642-9.561,0
						c-2.64-2.642-2.64-6.926,0-9.568C267.353,127.14,271.634,127.14,274.274,129.783z" />
					</g>
					<g>
						<path style="fill:#FFFFFF;" d="M274.274,151.368c2.64,2.642,2.64,6.926,0,9.568c-2.64,2.642-6.921,2.642-9.561,0
						c-2.64-2.642-2.64-6.926,0-9.568C267.353,148.726,271.634,148.726,274.274,151.368z" />
					</g>
					<g>
						<path style="fill:#FFFFFF;" d="M274.274,172.954c2.64,2.642,2.64,6.926,0,9.568c-2.64,2.642-6.921,2.642-9.561,0
						c-2.64-2.642-2.64-6.926,0-9.568C267.353,170.312,271.634,170.312,274.274,172.954z" />
					</g>
				</g>
				<g>
					<g>
						<path style="fill:#FFFFFF;" d="M295.63,86.611c2.64,2.642,2.64,6.926,0,9.568c-2.64,2.642-6.921,2.642-9.561,0
						c-2.64-2.642-2.64-6.926,0-9.568C288.709,83.969,292.99,83.969,295.63,86.611z" />
					</g>
					<g>
						<path style="fill:#FFFFFF;" d="M295.63,108.197c2.64,2.642,2.64,6.926,0,9.568c-2.64,2.642-6.921,2.642-9.561,0
						c-2.64-2.642-2.64-6.926,0-9.568C288.709,105.555,292.99,105.555,295.63,108.197z" />
					</g>
					<g>
						<path style="fill:#FFFFFF;" d="M295.63,129.783c2.64,2.642,2.64,6.926,0,9.568c-2.64,2.642-6.921,2.642-9.561,0
						c-2.64-2.642-2.64-6.926,0-9.568C288.709,127.14,292.99,127.14,295.63,129.783z" />
					</g>
					<g>
						<path style="fill:#FFFFFF;" d="M295.63,151.368c2.64,2.642,2.64,6.926,0,9.568c-2.64,2.642-6.921,2.642-9.561,0
						c-2.64-2.642-2.64-6.926,0-9.568C288.709,148.726,292.99,148.726,295.63,151.368z" />
					</g>
					<g>
						<path style="fill:#FFFFFF;" d="M295.63,172.954c2.64,2.642,2.64,6.926,0,9.568c-2.64,2.642-6.921,2.642-9.561,0
						c-2.64-2.642-2.64-6.926,0-9.568C288.709,170.312,292.99,170.312,295.63,172.954z" />
					</g>
				</g>
				<g>
					<g>
						<path style="fill:#FFFFFF;" d="M317.373,86.611c2.64,2.642,2.64,6.926,0,9.568c-2.64,2.642-6.921,2.642-9.561,0
						c-2.64-2.642-2.64-6.926,0-9.568C310.452,83.969,314.732,83.969,317.373,86.611z" />
					</g>
					<g>
						<path style="fill:#FFFFFF;" d="M317.373,108.197c2.64,2.642,2.64,6.926,0,9.568c-2.64,2.642-6.921,2.642-9.561,0
						c-2.64-2.642-2.64-6.926,0-9.568C310.452,105.555,314.732,105.555,317.373,108.197z" />
					</g>
					<g>
						<path style="fill:#FFFFFF;" d="M317.373,129.783c2.64,2.642,2.64,6.926,0,9.568c-2.64,2.642-6.921,2.642-9.561,0
						c-2.64-2.642-2.64-6.926,0-9.568C310.452,127.14,314.732,127.14,317.373,129.783z" />
					</g>
					<g>
						<path style="fill:#FFFFFF;" d="M317.373,151.368c2.64,2.642,2.64,6.926,0,9.568c-2.64,2.642-6.921,2.642-9.561,0
						c-2.64-2.642-2.64-6.926,0-9.568C310.452,148.726,314.732,148.726,317.373,151.368z" />
					</g>
					<g>
						<path style="fill:#FFFFFF;" d="M317.373,172.954c2.64,2.642,2.64,6.926,0,9.568c-2.64,2.642-6.921,2.642-9.561,0
						c-2.64-2.642-2.64-6.926,0-9.568C310.452,170.312,314.732,170.312,317.373,172.954z" />
					</g>
				</g>
				<g>
					<g>
						<path style="fill:#FFFFFF;" d="M338.728,86.611c2.64,2.642,2.64,6.926,0,9.568c-2.64,2.642-6.921,2.642-9.561,0
						c-2.64-2.642-2.64-6.926,0-9.568C331.808,83.969,336.088,83.969,338.728,86.611z" />
					</g>
					<g>
						<path style="fill:#FFFFFF;" d="M338.728,108.197c2.64,2.642,2.64,6.926,0,9.568c-2.64,2.642-6.921,2.642-9.561,0
						c-2.64-2.642-2.64-6.926,0-9.568C331.808,105.555,336.088,105.555,338.728,108.197z" />
					</g>
					<g>
						<path style="fill:#FFFFFF;" d="M338.728,129.783c2.64,2.642,2.64,6.926,0,9.568c-2.64,2.642-6.921,2.642-9.561,0
						c-2.64-2.642-2.64-6.926,0-9.568C331.808,127.14,336.088,127.14,338.728,129.783z" />
					</g>
					<g>
						<path style="fill:#FFFFFF;" d="M338.728,151.368c2.64,2.642,2.64,6.926,0,9.568c-2.64,2.642-6.921,2.642-9.561,0
						c-2.64-2.642-2.64-6.926,0-9.568C331.808,148.726,336.088,148.726,338.728,151.368z" />
					</g>
					<g>
						<path style="fill:#FFFFFF;" d="M338.728,172.954c2.64,2.642,2.64,6.926,0,9.568c-2.64,2.642-6.921,2.642-9.561,0
						c-2.64-2.642-2.64-6.926,0-9.568C331.808,170.312,336.088,170.312,338.728,172.954z" />
					</g>
				</g>
				<g>
					<g>
						<path style="fill:#FFFFFF;" d="M359.397,86.611c2.64,2.642,2.64,6.926,0,9.568c-2.64,2.642-6.921,2.642-9.561,0
						c-2.64-2.642-2.64-6.926,0-9.568C352.476,83.969,356.757,83.969,359.397,86.611z" />
					</g>
					<g>
						<path style="fill:#FFFFFF;" d="M359.397,108.197c2.64,2.642,2.64,6.926,0,9.568c-2.64,2.642-6.921,2.642-9.561,0
						c-2.64-2.642-2.64-6.926,0-9.568C352.476,105.555,356.757,105.555,359.397,108.197z" />
					</g>
					<g>
						<path style="fill:#FFFFFF;" d="M359.397,129.783c2.64,2.642,2.64,6.926,0,9.568c-2.64,2.642-6.921,2.642-9.561,0
						c-2.64-2.642-2.64-6.926,0-9.568C352.476,127.14,356.757,127.14,359.397,129.783z" />
					</g>
					<g>
						<path style="fill:#FFFFFF;" d="M359.397,151.368c2.64,2.642,2.64,6.926,0,9.568c-2.64,2.642-6.921,2.642-9.561,0
						c-2.64-2.642-2.64-6.926,0-9.568C352.476,148.726,356.757,148.726,359.397,151.368z" />
					</g>
					<g>
						<path style="fill:#FFFFFF;" d="M359.397,172.954c2.64,2.642,2.64,6.926,0,9.568c-2.64,2.642-6.921,2.642-9.561,0
						c-2.64-2.642-2.64-6.926,0-9.568C352.476,170.312,356.757,170.312,359.397,172.954z" />
					</g>
				</g>
			</g>
			<g>
				<defs>
					<path id="SVGID_1_" d="M451.241,302.496c29.792,9.393,46.328,41.158,36.936,70.95c-9.393,29.792-41.158,46.328-70.95,36.936
					c-29.792-9.393-46.329-41.158-36.936-70.95C389.684,309.64,421.449,293.104,451.241,302.496z" />
				</defs>
				<clipPath id="SVGID_00000003097054495521289080000003962908142191929984_">
					<use xlink:href="#SVGID_1_" style="overflow:visible;" />
				</clipPath>
				<g style="clip-path:url(#SVGID_00000003097054495521289080000003962908142191929984_);">

					<rect x="303.393" y="335.272" transform="matrix(0.5373 -0.8434 0.8434 0.5373 -109.3396 477.3573)"
						style="fill:#FFFFFF;" width="153.966" height="6.11" />

					<rect x="318.844" y="340.143" transform="matrix(0.5373 -0.8434 0.8434 0.5373 -106.2987 492.643)"
						style="fill:#FFFFFF;" width="153.966" height="6.11" />

					<rect x="334.295" y="345.015" transform="matrix(0.5373 -0.8434 0.8434 0.5373 -103.2578 507.9289)"
						style="fill:#FFFFFF;" width="153.966" height="6.11" />

					<rect x="349.747" y="349.886" transform="matrix(0.5373 -0.8434 0.8434 0.5373 -100.2168 523.2148)"
						style="fill:#FFFFFF;" width="153.966" height="6.11" />

					<rect x="365.198" y="354.758" transform="matrix(0.5373 -0.8434 0.8434 0.5373 -97.1758 538.5009)"
						style="fill:#FFFFFF;" width="153.966" height="6.11" />

					<rect x="380.649" y="359.629" transform="matrix(0.5373 -0.8434 0.8434 0.5373 -94.135 553.786)"
						style="fill:#FFFFFF;" width="153.966" height="6.11" />

					<rect x="396.1" y="364.501" transform="matrix(0.5373 -0.8434 0.8434 0.5373 -91.094 569.072)"
						style="fill:#FFFFFF;" width="153.966" height="6.11" />

					<rect x="411.552" y="369.372" transform="matrix(0.5373 -0.8434 0.8434 0.5373 -88.0531 584.3578)"
						style="fill:#FFFFFF;" width="153.966" height="6.11" />
				</g>
			</g>
			<g>
				<g>
					<g>
						<path style="fill:#FFFFFF;" d="M189.74,65.193h9.757c0.876,0,1.585,0.71,1.585,1.586v9.757c0,0.876,0.71,1.585,1.586,1.585
						h0.244c0.876,0,1.586-0.71,1.586-1.585v-9.757c0-0.876,0.71-1.586,1.585-1.586h9.757c0.876,0,1.586-0.71,1.586-1.586v-0.244
						c0-0.876-0.71-1.585-1.586-1.585h-9.757c-0.876,0-1.585-0.71-1.585-1.586v-9.757c0-0.876-0.71-1.585-1.586-1.585h-0.244
						c-0.876,0-1.586,0.71-1.586,1.585v9.757c0,0.876-0.71,1.586-1.585,1.586h-9.757c-0.876,0-1.585,0.71-1.585,1.585v0.244
						C188.155,64.483,188.864,65.193,189.74,65.193z" />
					</g>
					<g>
						<path style="fill:#FFFFFF;" d="M217.231,82.698h5.95c0.534,0,0.967,0.433,0.967,0.967v5.949c0,0.534,0.433,0.967,0.967,0.967
						h0.149c0.534,0,0.967-0.433,0.967-0.967v-5.949c0-0.534,0.433-0.967,0.967-0.967h5.949c0.534,0,0.967-0.433,0.967-0.967v-0.149
						c0-0.534-0.433-0.967-0.967-0.967h-5.949c-0.534,0-0.967-0.433-0.967-0.967V73.7c0-0.534-0.433-0.967-0.967-0.967h-0.149
						c-0.534,0-0.967,0.433-0.967,0.967v5.949c0,0.534-0.433,0.967-0.967,0.967h-5.95c-0.534,0-0.966,0.433-0.966,0.967v0.149
						C216.264,82.266,216.697,82.698,217.231,82.698z" />
					</g>
				</g>
			</g>
			<g>
				<path style="fill:#D4F0F5;" d="M441.093,199.767c5.855,5.855,5.855,15.348,0,21.203c-5.855,5.855-15.348,5.855-21.203,0
				c-5.855-5.855-5.855-15.348,0-21.203C425.745,193.912,435.238,193.912,441.093,199.767z" />
				<g>
					<path style="fill:#FFFFFF;" d="M443.276,217.336c5.58,5.525,8.84,13.293,8.906,21.177c0.038,3.937-0.663,7.896-2.126,11.579
					c-1.453,3.685-3.652,7.086-6.42,9.952c-5.53,5.75-13.44,9.214-21.52,9.289c-4.031,0.033-8.08-0.719-11.827-2.251
					c-3.745-1.534-7.177-3.824-10.053-6.675c-2.851-2.875-5.137-6.311-6.67-10.056c-1.536-3.745-2.283-7.796-2.253-11.827
					c0.067-8.081,3.524-15.997,9.266-21.535c2.865-2.772,6.261-4.976,9.945-6.434c3.682-1.467,7.641-2.172,11.579-2.134
					C429.989,208.484,437.755,211.752,443.276,217.336z M443.276,217.336c-2.785-2.76-6.105-4.974-9.728-6.458
					c-3.624-1.484-7.544-2.209-11.444-2.176c-7.822,0.077-15.465,3.432-20.813,8.997c-2.677,2.776-4.8,6.065-6.203,9.628
					c-1.413,3.561-2.086,7.39-2.05,11.197c0.069,7.626,3.218,15.126,8.611,20.471c5.339,5.398,12.838,8.558,20.465,8.622
					c3.807,0.039,7.636-0.642,11.196-2.058c3.562-1.408,6.846-3.537,9.62-6.218c5.558-5.357,8.902-13.006,8.973-20.828
					c0.03-3.901-0.693-7.82-2.177-11.445C448.245,223.445,446.033,220.123,443.276,217.336z" />
				</g>
			</g>
			<g>
				<defs>
					<path id="SVGID_00000132776644280069690780000008442956105473397931_" d="M112.798,22.76
					c31.161,2.186,54.65,29.218,52.465,60.38c-2.186,31.161-29.219,54.65-60.379,52.464c-31.161-2.186-54.65-29.218-52.464-60.38
					C54.604,44.063,81.637,20.574,112.798,22.76z" />
				</defs>
				<clipPath id="SVGID_00000097495171995891199030000017368758377228003999_">
					<use xlink:href="#SVGID_00000132776644280069690780000008442956105473397931_"
						style="overflow:visible;" />
				</clipPath>
				<g style="clip-path:url(#SVGID_00000097495171995891199030000017368758377228003999_);">

					<rect x="-24.74" y="71.074" transform="matrix(0.3258 -0.9454 0.9454 0.3258 -34.8609 99.3736)"
						style="fill:#FFFFFF;" width="153.966" height="6.11" />

					<rect x="-8.578" y="72.208" transform="matrix(0.3258 -0.9454 0.9454 0.3258 -25.0362 115.4176)"
						style="fill:#FFFFFF;" width="153.966" height="6.11" />

					<rect x="7.583" y="73.341" transform="matrix(0.3258 -0.9454 0.9454 0.3258 -15.2116 131.4616)"
						style="fill:#FFFFFF;" width="153.966" height="6.11" />

					<rect x="23.744" y="74.475" transform="matrix(0.3258 -0.9454 0.9454 0.3258 -5.3868 147.5057)"
						style="fill:#FFFFFF;" width="153.966" height="6.11" />

					<rect x="39.906" y="75.608" transform="matrix(0.3258 -0.9454 0.9454 0.3258 4.4379 163.5496)"
						style="fill:#FFFFFF;" width="153.966" height="6.11" />

					<rect x="56.067" y="76.742" transform="matrix(0.3258 -0.9454 0.9454 0.3258 14.2626 179.5936)"
						style="fill:#FFFFFF;" width="153.966" height="6.11" />

					<rect x="72.228" y="77.876" transform="matrix(0.3258 -0.9454 0.9454 0.3258 24.0873 195.6376)"
						style="fill:#FFFFFF;" width="153.966" height="6.11" />

					<rect x="88.39" y="79.009" transform="matrix(0.3258 -0.9454 0.9454 0.3258 33.9119 211.6816)"
						style="fill:#FFFFFF;" width="153.966" height="6.11" />
				</g>
			</g>
			<g>
				<circle style="fill:#B9E5EE;" cx="78.934" cy="127.651" r="36.255" />

				<ellipse transform="matrix(0.9625 -0.2714 0.2714 0.9625 -31.682 26.2142)" style="fill:#FFFFFF;"
					cx="78.934" cy="127.651" rx="33.257" ry="33.257" />
				<g>
					<path style="fill:#92D5E4;" d="M82.379,106.318c0.235,3.975,0.322,7.95,0.422,11.925c0.057,3.975,0.097,7.95,0.065,11.925
					l-0.004,0.489l-0.483-0.002c-2.981-0.012-5.962-0.053-8.944-0.142c-1.491-0.046-2.981-0.064-4.472-0.132
					c-1.491-0.069-2.981-0.116-4.472-0.213c1.491-0.097,2.981-0.144,4.472-0.213c1.491-0.068,2.981-0.087,4.472-0.132
					c2.981-0.088,5.962-0.13,8.944-0.142l-0.487,0.487c-0.032-3.975,0.008-7.95,0.065-11.925
					C82.057,114.268,82.145,110.293,82.379,106.318z" />
				</g>
			</g>
			<g>
				<path style="fill:#92D5E4;" d="M443.176,364.951c5.571,9.206,2.628,21.191-6.573,26.769c-9.201,5.578-21.177,2.638-26.748-6.568
				c-5.571-9.206-2.628-21.191,6.573-26.769C425.63,352.804,437.605,355.745,443.176,364.951z" />
			</g>
			<g>
				<path style="fill:#92D5E4;" d="M451.128,345.917c1.46,2.412,0.689,5.552-1.722,7.013c-2.411,1.461-5.548,0.691-7.008-1.721
				c-1.46-2.412-0.688-5.552,1.722-7.013C446.531,342.735,449.669,343.505,451.128,345.917z" />
			</g>

			<ellipse transform="matrix(0.2583 -0.9661 0.9661 0.2583 -136.1775 170.1012)" style="fill:#92D5E4;"
				cx="42.689" cy="173.736" rx="12.682" ry="12.682" />
			<path style="fill:#D4F0F5;" d="M437.706,178.411c2.142,2.142,2.142,5.615,0,7.756c-2.142,2.142-5.614,2.142-7.756,0
			c-2.142-2.142-2.142-5.614,0-7.756C432.092,176.269,435.564,176.269,437.706,178.411z" />
			<path style="fill:#92D5E4;" d="M389.449,221.434l-2.949,4.825c-0.056,0.092-0.133,0.17-0.224,0.228l-5.279,3.334
			c-0.442,0.279-0.435,0.927,0.014,1.196l5.587,3.352c0.101,0.06,0.185,0.145,0.244,0.246l2.692,4.576
			c0.265,0.45,0.911,0.464,1.195,0.025l3.005-4.645c0.047-0.073,0.108-0.137,0.178-0.188l5.04-3.64
			c0.418-0.302,0.379-0.936-0.073-1.185l-5.554-3.055c-0.125-0.069-0.226-0.174-0.29-0.301l-2.359-4.717
			C390.43,220.992,389.736,220.963,389.449,221.434z" />
			<path style="fill:#FFFFFF;" d="M363.603,232.942l-4.232,6.925c-0.081,0.132-0.191,0.244-0.322,0.327l-7.576,4.785
			c-0.635,0.401-0.624,1.33,0.02,1.717l8.017,4.811c0.145,0.087,0.265,0.208,0.35,0.353l3.863,6.566
			c0.38,0.646,1.308,0.666,1.715,0.036l4.313-6.665c0.068-0.105,0.155-0.196,0.256-0.27l7.233-5.223
			c0.6-0.433,0.544-1.344-0.104-1.7l-7.97-4.384c-0.179-0.099-0.324-0.249-0.416-0.432l-3.385-6.77
			C365.011,232.308,364.016,232.266,363.603,232.942z" />
			<path style="fill:#92D5E4;" d="M75.42,174.6c2.522,1.641,3.236,5.015,1.596,7.537c-1.641,2.522-5.015,3.236-7.537,1.596
			c-2.522-1.641-3.236-5.015-1.596-7.537C69.524,173.674,72.898,172.96,75.42,174.6z" />
			<path style="fill:#92D5E4;" d="M107.663,70.275l-2.949,4.825c-0.056,0.092-0.133,0.17-0.224,0.228l-5.279,3.334
			c-0.442,0.279-0.435,0.927,0.014,1.196l5.587,3.352c0.101,0.06,0.185,0.145,0.244,0.246l2.692,4.576
			c0.265,0.45,0.911,0.464,1.195,0.025l3.005-4.645c0.047-0.073,0.108-0.137,0.179-0.188l5.04-3.64
			c0.418-0.302,0.379-0.936-0.073-1.185l-5.554-3.055c-0.125-0.069-0.226-0.174-0.29-0.301l-2.359-4.717
			C108.644,69.834,107.951,69.804,107.663,70.275z" />
		</g>
		<g>
			<g>
				<g>
					<g>
						<path style="fill:#92D5E4;" d="M138.933,383.826c0.671-2.661,1.338-5.31,1.916-7.977c0.566-2.669,1.104-5.34,1.534-8.031
						c0.454-2.686,0.803-5.389,1.117-8.098c0.155-1.355,0.281-2.714,0.391-4.077c0.135-1.361,0.209-2.726,0.324-4.095
						c0.111,1.369,0.135,2.741,0.166,4.115c-0.01,1.373-0.051,2.746-0.114,4.12c-0.135,2.747-0.461,5.482-0.897,8.198
						c-0.459,2.712-1.028,5.407-1.777,8.052C140.855,378.681,139.996,381.294,138.933,383.826z" />
					</g>
					<g>
						<g>
							<path style="fill:#B9E5EE;" d="M169.294,403.302C144.98,311.077,98.641,268.447,46.458,229.145
							c-1.621,35.205,5.538,75.551,20.939,103.416s46.182,79.812,81.972,101.059" />
						</g>
						<g>
							<path style="fill:#92D5E4;" d="M154.427,425.677l-5.146-12.771l-5.363-12.679l-5.535-12.603
							c-1.883-4.184-3.837-8.335-5.752-12.504c-7.808-16.605-16.125-32.972-25.087-48.982
							c-8.891-16.049-18.419-31.742-28.487-47.082c-2.511-3.839-5.108-7.621-7.658-11.435c-2.595-3.783-5.263-7.516-7.886-11.28
							l-8.075-11.149l-8.307-10.98l8.502,10.833l8.277,11.009c2.67,3.735,5.372,7.448,8.009,11.207
							c2.59,3.791,5.228,7.552,7.78,11.369c10.213,15.27,19.748,30.99,28.719,47.021c8.9,16.071,17.242,32.453,24.908,49.146
							c1.876,4.192,3.79,8.366,5.633,12.571l5.408,12.668l5.14,12.778L154.427,425.677z" />
						</g>
						<g>
							<path style="fill:#92D5E4;" d="M127.698,362.074c0.227-2.361,0.562-4.702,0.913-7.04c0.34-2.34,0.757-4.666,1.175-6.992
							c0.441-2.321,0.884-4.642,1.403-6.949l0.782-3.46c0.297-1.147,0.559-2.3,0.886-3.441c-0.104,1.182-0.271,2.353-0.404,3.53
							l-0.508,3.511c-0.341,2.34-0.758,4.666-1.177,6.991c-0.442,2.321-0.885,4.642-1.405,6.949
							C128.856,357.482,128.331,359.788,127.698,362.074z" />
						</g>
						<g>
							<path style="fill:#92D5E4;" d="M108.749,325.174c0.429-2.573,0.866-5.132,1.222-7.701c0.345-2.57,0.67-5.138,0.896-7.717
							c0.25-2.577,0.402-5.161,0.528-7.75c0.062-1.295,0.096-2.591,0.114-3.89c0.045-1.299,0.03-2.598,0.058-3.904
							c0.198,1.29,0.31,2.59,0.432,3.891c0.081,1.302,0.133,2.607,0.165,3.913c0.055,2.613-0.072,5.228-0.302,7.831
							c-0.253,2.601-0.608,5.195-1.136,7.754C110.209,320.163,109.578,322.699,108.749,325.174z" />
						</g>
						<g>
							<path style="fill:#92D5E4;" d="M90.265,295.623c0.284-4.03,0.578-8.014,0.652-12.015c0.103-4-0.012-7.99-0.158-12.028
							c0.931,3.937,1.234,8.006,1.157,12.05C91.81,287.675,91.325,291.72,90.265,295.623z" />
						</g>
						<g>
							<path style="fill:#92D5E4;" d="M72.246,268.255c0.052-2.391,0.178-4.71,0.151-7.042c0.001-2.333-0.146-4.644-0.269-7.032
							c0.901,2.224,1.243,4.638,1.269,7.027C73.392,263.6,73.075,266.006,72.246,268.255z" />
						</g>
						<g>
							<path style="fill:#92D5E4;" d="M71.983,268.721c-2.086,0.158-4.138,0.011-6.181-0.206c-2.04-0.249-4.071-0.571-6.067-1.199
							c2.087-0.16,4.138-0.013,6.181,0.206C67.955,267.773,69.987,268.095,71.983,268.721z" />
						</g>
						<g>
							<path style="fill:#92D5E4;" d="M89.854,296.217c-2.343,0.444-4.757,0.529-7.151,0.329c-2.398-0.187-4.768-0.719-7.045-1.506
							c-2.27-0.808-4.453-1.873-6.446-3.217l-1.464-1.047l-1.402-1.123l-1.311-1.224c-0.418-0.427-0.827-0.861-1.227-1.3
							c0.476,0.361,0.943,0.727,1.401,1.1l1.439,1.038l1.462,0.991l1.509,0.911c2.039,1.16,4.161,2.164,6.37,2.928
							c2.202,0.787,4.486,1.328,6.804,1.689C85.112,296.137,87.473,296.25,89.854,296.217z" />
						</g>
						<g>
							<path style="fill:#92D5E4;" d="M107.966,325.493c-3.09,0.909-6.301,1.421-9.534,1.591c-3.235,0.183-6.494-0.038-9.692-0.594
							c-3.194-0.578-6.332-1.494-9.3-2.798l-2.196-1.036l-2.134-1.15l-2.046-1.296c-0.661-0.463-1.313-0.936-1.959-1.415
							c0.706,0.389,1.405,0.784,2.096,1.188l2.14,1.09l2.171,1.011l2.218,0.895c2.984,1.114,6.054,1.982,9.186,2.527
							c3.127,0.568,6.309,0.811,9.495,0.812C101.598,326.31,104.789,325.999,107.966,325.493z" />
						</g>
						<g>
							<path style="fill:#92D5E4;"
								d="M127.299,361.99c-1.32,0.648-2.686,1.251-4.187,1.492c-0.747,0.124-1.517,0.097-2.25,0.053
							c-0.738-0.041-1.477-0.074-2.214-0.144c-2.951-0.23-5.883-0.732-8.76-1.444c-2.873-0.727-5.703-1.64-8.42-2.819
							c-1.354-0.598-2.699-1.214-4.007-1.902c-1.3-0.703-2.581-1.438-3.816-2.245c1.346,0.605,2.665,1.25,4.03,1.796
							c1.339,0.597,2.708,1.123,4.081,1.628c2.748,1.003,5.541,1.867,8.374,2.576c2.829,0.73,5.706,1.247,8.601,1.678
							c0.723,0.114,1.451,0.193,2.179,0.28c0.73,0.099,1.438,0.134,2.155,0.095C124.5,362.952,125.904,362.448,127.299,361.99z" />
						</g>
					</g>
				</g>
				<g>
					<path style="fill:#92D5E4;" d="M241.108,470.576c22.691-1.263,46.147,2.494,68.025,10.894
					c-17.173-8.763-35.274-15.648-53.788-20.458c30.831-3.875,62.632-3.537,94.159,1.002c-25.442-6.84-51.373-11.326-77.289-13.372
					c33.054-7.563,66.714-13.349,100.774-17.324c-31.372-3.518-59.81-6.204-90.056-0.859
					c34.316-16.294,68.465-24.083,107.095-30.154c-39.566-3.525-83.351-0.485-126.244,14.069c-9.326,3.164-36,17.617-36,17.617
					l-12.658,19.449L241.108,470.576z" />
				</g>
				<g>
					<g>
						<path style="fill:#92D5E4;" d="M243.4,405.135c-0.505-2.412-0.778-4.869-0.912-7.334c-0.145-2.466-0.088-4.942,0.093-7.406
						c0.204-2.463,0.533-4.917,1.06-7.33c0.27-1.205,0.561-2.404,0.884-3.594c0.365-1.179,0.722-2.358,1.165-3.508
						c-0.11,0.607-0.228,1.21-0.357,1.809l-0.33,1.81c-0.224,1.204-0.429,2.409-0.604,3.618c-0.344,2.419-0.642,4.84-0.821,7.272
						c-0.203,2.43-0.285,4.868-0.324,7.311C243.227,400.228,243.305,402.674,243.4,405.135z" />
					</g>
					<g>
						<g>
							<path style="fill:#B9E5EE;" d="M205.488,417.236c49.45-76.891,115.259-109.974,181.872-135.883
							c-10.776,30.866-29.583,68.643-53.294,90.554c-23.711,21.911-70.169,62.419-114.434,75.184" />
						</g>
						<g>
							<path style="fill:#92D5E4;" d="M216.104,439.296l8.852-10.819l9.048-10.659l9.278-10.461l9.469-10.29
							c12.756-13.601,26.07-26.678,39.805-39.291c13.791-12.553,28.01-24.639,42.702-36.121l11.102-8.503l11.257-8.295l11.436-8.044
							l11.581-7.83l-11.44,8.03l-11.288,8.239l-11.163,8.403l-11.008,8.604c-14.578,11.595-28.784,23.659-42.505,36.255
							c-13.776,12.536-27.061,25.606-39.923,39.08l-9.56,10.188l-9.377,10.359l-9.228,10.495L216.104,439.296z" />
						</g>
						<g>
							<path style="fill:#92D5E4;" d="M261.052,387.901c-0.095-2.119-0.081-4.232-0.05-6.344c0.019-2.113,0.117-4.222,0.215-6.33
							c0.122-2.107,0.246-4.215,0.447-6.318l0.305-3.155c0.138-1.05,0.242-2.101,0.411-3.149c0.058,1.06,0.051,2.117,0.079,3.175
							l-0.027,3.169c-0.02,2.113-0.118,4.222-0.217,6.33c-0.123,2.107-0.247,4.215-0.449,6.318
							C261.576,383.7,261.369,385.803,261.052,387.901z" />
						</g>
						<g>
							<path style="fill:#92D5E4;" d="M290.878,358.649c-0.264-2.343-0.305-4.707-0.216-7.066c0.077-2.361,0.345-4.714,0.724-7.046
							c0.402-2.329,0.918-4.64,1.617-6.897c0.355-1.127,0.729-2.245,1.131-3.353c0.443-1.095,0.875-2.19,1.389-3.252
							c-0.301,1.141-0.64,2.263-0.922,3.401c-0.305,1.131-0.594,2.264-0.855,3.403c-0.517,2.279-0.999,4.561-1.374,6.863
							c-0.399,2.298-0.688,4.613-0.946,6.935C291.179,353.962,291.027,356.298,290.878,358.649z" />
						</g>
						<g>
							<path style="fill:#92D5E4;" d="M318.367,335.764c-0.133-3.684,0.376-7.378,1.28-10.955c0.932-3.57,2.268-7.052,4.17-10.21
							c-1.181,3.487-2.309,6.935-3.202,10.459C319.694,328.576,319.019,332.142,318.367,335.764z" />
						</g>
						<g>
							<path style="fill:#92D5E4;" d="M344.805,314.719c-0.295-2.182-0.012-4.41,0.594-6.522c0.633-2.104,1.603-4.132,3.041-5.8
							c-0.747,2.063-1.494,4.039-2.082,6.083C345.742,310.514,345.299,312.581,344.805,314.719z" />
						</g>
						<g>
							<path style="fill:#92D5E4;" d="M344.975,315.17c2.304-0.264,4.59-0.223,6.872-0.111c2.28,0.144,4.557,0.362,6.815,0.887
							c-2.304,0.266-4.59,0.226-6.872,0.111C349.51,315.911,347.234,315.693,344.975,315.17z" />
						</g>
						<g>
							<path style="fill:#92D5E4;" d="M318.666,336.353c2.599,0.406,5.2,0.679,7.803,0.741c2.602,0.05,5.202-0.051,7.778-0.375
							c2.579-0.301,5.128-0.822,7.643-1.491l1.877-0.543l1.854-0.625l1.845-0.67c0.602-0.255,1.211-0.499,1.827-0.737
							c-0.566,0.334-1.138,0.661-1.717,0.978l-1.772,0.883l-1.828,0.766l-1.863,0.683c-2.508,0.856-5.114,1.418-7.746,1.747
							c-2.635,0.306-5.3,0.383-7.939,0.147C323.79,337.635,321.174,337.161,318.666,336.353z" />
						</g>
						<g>
							<path style="fill:#92D5E4;" d="M291.651,359.057c3.415,0.981,6.868,1.77,10.36,2.287c3.492,0.505,7.01,0.797,10.532,0.799
							c3.522,0.027,7.043-0.234,10.538-0.71l2.615-0.411l2.599-0.52l2.589-0.59c0.853-0.238,1.71-0.464,2.573-0.683
							c-0.828,0.321-1.66,0.635-2.498,0.937l-2.546,0.812l-2.591,0.663l-2.62,0.552c-3.511,0.662-7.09,0.955-10.666,0.951
							c-3.575-0.028-7.152-0.352-10.657-1.044C298.377,361.418,294.933,360.428,291.651,359.057z" />
						</g>
						<g>
							<path style="fill:#92D5E4;"
								d="M261.508,387.893c1.484,0.665,2.972,1.368,4.551,1.628c0.785,0.141,1.579,0.198,2.395,0.232
							c0.81,0.046,1.621,0.082,2.432,0.099c3.242,0.088,6.484,0.088,9.718-0.091c3.235-0.157,6.463-0.456,9.679-0.874
							c1.608-0.21,3.216-0.442,4.813-0.738c1.609-0.244,3.198-0.586,4.803-0.882c-1.547,0.517-3.12,0.956-4.702,1.366
							c-1.586,0.393-3.188,0.715-4.795,1.02c-3.217,0.599-6.48,0.932-9.749,1.106c-3.27,0.153-6.55,0.128-9.81-0.156
							c-0.815-0.063-1.628-0.146-2.44-0.238c-0.806-0.086-1.64-0.169-2.445-0.386C264.34,389.546,262.892,388.745,261.508,387.893z" />
						</g>
						<g>
							<path style="fill:#92D5E4;" d="M239.841,412.055c2.59,0.208,5.168,0.39,7.747,0.457c2.579,0.056,5.155,0.058,7.727-0.07
							c2.573-0.104,5.138-0.337,7.701-0.625c1.281-0.148,2.56-0.327,3.837-0.527l1.919-0.296c0.636-0.12,1.276-0.227,1.919-0.327
							c-1.229,0.425-2.485,0.761-3.741,1.104c-1.266,0.299-2.54,0.565-3.821,0.807c-2.564,0.471-5.164,0.734-7.769,0.863
							c-2.606,0.105-5.219,0.076-7.815-0.164C244.949,413.049,242.367,412.671,239.841,412.055z" />
						</g>
					</g>
				</g>
				<g>
					<path style="fill:#92D5E4;"
						d="M140.276,441.557c-7.534,0.777-15.068,1.554-22.601,2.332
					c-4.895,0.505-10.066,0.968-14.536-1.091c-4.47-2.059-7.723-7.614-5.52-12.015c2.701-5.396,11.398-5.829,13.496-11.487
					c-5.624-5.409-14.223-5.986-22.025-5.82c-7.801,0.166-16.142,0.633-22.815-3.412c-6.673-4.045-9.779-14.722-3.696-19.608
					c2.461-1.977,5.747-2.525,8.581-3.914c2.834-1.39,5.448-4.437,4.447-7.43c-0.658-1.966-2.63-3.143-4.501-4.038
					c-7.728-3.698-16.201-5.52-24.241-8.478c-8.04-2.958-16.004-7.381-20.53-14.655s-4.451-17.919,2.043-23.506
					c7.407-6.372,19.271-3.496,26.805,2.724c7.534,6.221,12.45,15.026,19.267,22.024c2.335,2.397,5.76,4.726,8.782,3.287
					c3.91-1.863,2.992-7.555,1.96-11.762c-1.032-4.207,0.038-10.444,4.364-10.24c1.417,0.067,2.672,0.924,3.72,1.881
					c11.157,10.187,4.805,29.078,10.424,43.102c1.242,3.099,3.997,6.368,7.251,5.62c6.45-1.482,2.834-14.408,9.213-16.171
					c2.812-0.777,5.598,1.552,6.93,4.148c4.582,8.935-1.493,19.714-0.312,29.686c1.563,13.193,14.859,21.299,26.823,27.075" />
				</g>
				<g>
					<g>
						<g>
							<path style="fill:#92D5E4;" d="M228.54,380.33c2.069-8.899,4.184-17.801,6.96-26.512c2.726-8.556,6.102-16.961,10.773-24.653
							c2.321-3.821,4.958-7.449,7.951-10.773c3.243-3.6,6.865-6.83,10.571-9.942c3.671-3.083,7.431-6.06,11.031-9.228
							c3.495-3.075,6.792-6.357,9.81-9.904c6.033-7.09,11.014-15.066,14.774-23.582c0.45-1.019,0.882-2.047,1.299-3.08
							c0.241-0.596-0.726-0.856-0.964-0.266c-3.508,8.688-8.271,16.891-14.142,24.197c-2.912,3.623-6.097,7.017-9.519,10.163
							c-3.533,3.247-7.275,6.253-10.971,9.308c-3.725,3.078-7.412,6.217-10.781,9.688c-3.138,3.233-5.948,6.77-8.421,10.536
							c-4.874,7.422-8.443,15.633-11.303,24.017c-2.964,8.688-5.181,17.608-7.278,26.538c-0.253,1.076-0.504,2.151-0.754,3.228
							C227.431,380.69,228.394,380.957,228.54,380.33L228.54,380.33z" />
						</g>
					</g>
					<g>
						<path style="fill:#92D5E4;"
							d="M295.025,274.546c0.832-9.791,2.199-20.728,9.242-27.07c1.388-1.25,3.033-2.29,4.799-2.391
						c1.766-0.101,3.632,0.964,4.108,2.805c0.307,1.186,0.016,2.477-0.354,3.668c-2.996,9.656-10.763,16.586-18.14,22.932" />
					</g>
					<g>
						<path style="fill:#92D5E4;" d="M286.514,286.221c4.212-2.972,8.972-4.975,13.866-5.837c2.629-0.463,5.466-0.558,7.713,0.886
						c2.248,1.444,3.532,4.89,2.085,7.373c-1.38,2.368-4.336,2.773-6.861,2.78c-6.119,0.015-12.211-0.812-18.088-2.456" />
					</g>
					<g>
						<path style="fill:#92D5E4;"
							d="M276.728,297.228c4.078-8.253,5.145-13.852,4.393-23.024c-0.205-2.506-0.668-5.146-2.257-6.914
						c-1.588-1.768-4.638-2.141-6.121-0.147c-1.021,1.372-0.983,3.294-0.872,5.023c0.54,8.463,1.932,18.971,3.382,27.27" />
					</g>
					<g>
						<path style="fill:#92D5E4;"
							d="M262.851,309.194c6.609-4.735,15.199-5.844,22.384-2.891c1.895,0.779,3.787,1.92,4.758,3.855
						c0.97,1.935,0.633,4.818-1.164,5.969c-1.186,0.76-2.641,0.605-3.972,0.391c-7.559-1.218-14.925-3.593-21.819-7.033" />
					</g>
					<g>
						<path style="fill:#92D5E4;" d="M257.791,313.156c3.019-8.403,3.663-17.725,1.818-26.337c-0.185-0.862-0.454-1.806-1.163-2.222
						c-1.522-0.893-3.081,1.335-3.631,3.178c-2.514,8.418-1.221,20.009,1.43,28.171" />
					</g>
					<g>
						<path style="fill:#92D5E4;" d="M249.698,324.373c4.775-2.532,10.719-1.944,14.808,1.464c1.339,1.116,2.557,3.075,1.695,4.728
						c-0.65,1.246-2.134,1.582-3.425,1.677c-4.895,0.36-11.122-2.95-15.347-5.488" />
					</g>
				</g>
			</g>
			<g>
				<g>
					<g>
						<g>
							<polygon style="fill:#2EA8BC;"
								points="301.914,115.201 303.158,112.636 303.575,112.898 						" />
							<path style="fill:#2EA8BC;" d="M306.255,107.565c1.125-1.639,2.382-3.188,3.705-4.682l1.346,1.314
							c-1.415,1.312-2.747,2.717-4.047,4.159L306.255,107.565z" />
							<path style="fill:#2EA8BC;" d="M314.219,98.658c1.497-1.334,3.08-2.573,4.738-3.707l1.462,2.211
							c-1.615,1.03-3.189,2.127-4.717,3.292L314.219,98.658z" />
							<polygon style="fill:#2EA8BC;"
								points="324.091,91.795 329.552,89.24 330.654,91.985 325.422,94.346 						" />
							<polygon style="fill:#2EA8BC;"
								points="335.243,87.264 341.091,85.864 341.656,88.688 336.081,90.105 						" />
							<path style="fill:#2EA8BC;" d="M347.036,85.047l2.986-0.202c0.994-0.075,1.993-0.056,2.988-0.079l0.081,2.336
							c-0.962,0.088-1.926,0.139-2.882,0.272l-2.872,0.313L347.036,85.047z" />
							<path style="fill:#2EA8BC;" d="M358.967,85.005c1.973,0.243,3.943,0.464,5.9,0.74l-0.139,1.278
							c-1.955-0.013-3.897-0.083-5.835-0.129L358.967,85.005z" />
							<polygon style="fill:#2EA8BC;" points="370.68,86.967 373.423,87.74 370.595,87.455 						" />
						</g>
					</g>
					<g>
						<path style="fill:#FFFFFF;stroke:#2EA8BC;stroke-miterlimit:10;" d="M380.655,102.617
						c-29.449-11.645-62.759,2.67-74.399,31.975c-7.294,18.362-4.346,38.251,6.116,53.41c0.092,0.595,0.416,1.089,1.047,1.449
						c0.017,0.023,0.033,0.046,0.05,0.069l-17.653,25.734c-0.954,1.391,0.7,3.174,2.288,2.467l30.933-13.784
						c2.953,1.852,6.106,3.473,9.466,4.802c29.449,11.645,62.759-2.67,74.399-31.975
						C424.542,147.459,410.105,114.262,380.655,102.617z" />
						<g>
							<path style="fill:#FFFFFF;stroke:#2EA8BC;stroke-miterlimit:10;" d="M375.058,188.699h-30.235
							c-8.461,0-15.319-6.859-15.319-15.319v-38.07c0-8.461,6.859-15.319,15.319-15.319h30.235c8.461,0,15.319,6.859,15.319,15.319
							v38.07C390.377,181.841,383.518,188.699,375.058,188.699z" />
							<g style="opacity:0.46;">
								<path style="fill:#2EA8BC;"
									d="M337.488,142.331h3.424v12.021h-2.272v-9.872h-2.476L337.488,142.331z" />
								<path style="fill:#2EA8BC;" d="M348.961,142.029l1.949,0.975l-2.104,4.084c1.019,0,1.886,0.365,2.599,1.095
								c0.713,0.73,1.071,1.637,1.071,2.721c0,1.046-0.366,1.933-1.099,2.66c-0.733,0.727-1.616,1.091-2.652,1.091
								c-1.085,0-1.988-0.377-2.709-1.132c-0.721-0.755-1.083-1.619-1.083-2.594c0-0.371,0.055-0.744,0.168-1.12
								c0.112-0.376,0.37-0.953,0.772-1.732L348.961,142.029z M348.675,149.253c-0.425,0-0.782,0.154-1.07,0.462
								c-0.288,0.307-0.433,0.694-0.433,1.156c0,0.463,0.151,0.853,0.453,1.169c0.302,0.316,0.656,0.474,1.058,0.474
								c0.425,0,0.791-0.155,1.095-0.466c0.305-0.311,0.458-0.703,0.458-1.177c0-0.463-0.149-0.849-0.445-1.156
								C349.494,149.407,349.122,149.253,348.675,149.253z" />
							</g>
							<path style="fill:#2EA8BC;" d="M377.581,119.991H342.3c-7.067,0-12.796,6.171-12.796,13.783v2.527h60.873v-2.527
							C390.377,126.162,384.648,119.991,377.581,119.991z" />
							<g style="opacity:0.61;">
								<path style="fill:#FFFFFF;" d="M365.224,128.261c0,1.332-1.08,2.412-2.412,2.412c-1.332,0-2.412-1.08-2.412-2.412
								c0-1.332,1.08-2.412,2.412-2.412C364.144,125.849,365.224,126.929,365.224,128.261z" />
								<path style="fill:#FFFFFF;" d="M373.264,128.261c0,1.332-1.08,2.412-2.412,2.412s-2.412-1.08-2.412-2.412
								c0-1.332,1.08-2.412,2.412-2.412S373.264,126.929,373.264,128.261z" />
								<circle style="fill:#FFFFFF;" cx="379.121" cy="128.261" r="2.412" />
							</g>
							<g>
								<path style="fill:#2EA8BC;" d="M400.025,139.096c-3.095,3.708-6.292,7.314-9.548,10.862
								c-3.25,3.553-6.548,7.058-9.891,10.519c-1.657,1.745-3.347,3.456-5.039,5.166c-1.696,1.706-3.363,3.441-5.087,5.118
								l-5.137,5.068l-5.205,5l-1.008,0.968l-0.876-1.028c-1.339-1.57-2.632-3.181-3.95-4.77c-1.321-1.586-2.604-3.206-3.897-4.817
								c-1.301-1.604-2.557-3.247-3.832-4.873c-1.26-1.64-2.507-3.291-3.728-4.965c1.509,1.421,2.991,2.865,4.46,4.319
								c1.454,1.469,2.927,2.921,4.356,4.412c1.437,1.484,2.883,2.959,4.292,4.468c1.411,1.506,2.848,2.99,4.239,4.515L358.289,179
								l5.001-5.204l5.068-5.137c1.678-1.724,3.413-3.39,5.119-5.086c1.71-1.692,3.422-3.382,5.166-5.039
								c3.46-3.343,6.966-6.641,10.519-9.891C392.71,145.387,396.316,142.19,400.025,139.096z" />
							</g>
						</g>
					</g>
				</g>
				<g>
					<defs>
						<circle id="SVGID_00000121259494059376693400000001698025930954678192_" cx="250" cy="250"
							r="221.617" />
					</defs>
					<clipPath id="SVGID_00000156562620225536865320000016029632677413535391_">
						<use xlink:href="#SVGID_00000121259494059376693400000001698025930954678192_"
							style="overflow:visible;" />
					</clipPath>
					<g style="clip-path:url(#SVGID_00000156562620225536865320000016029632677413535391_);">
						<g>
							<path style="fill:#38303B;" d="M229.784,134.372c-7.192-15.739-28.131-23.73-44.969-19.741
							c-16.839,3.989-29.952,18.22-36.151,34.376c-5.353,13.952-6.221,29.224-10.62,43.506
							c-3.747,12.166-10.075,23.531-18.443,33.124c-7.648,8.768-17.046,16.173-22.912,26.221
							c-7.619,13.049-8.209,29.938-1.519,43.487c6.69,13.549,20.458,23.348,35.451,25.232c15.721,1.975,31.984-4.201,47.323-0.23
							c7.796,2.019,14.885,6.579,22.873,7.603c13.792,1.769,27.267-8.006,33.011-20.669c5.744-12.663,4.969-27.423,1.463-40.879
							c-3.8-14.583-10.668-28.537-11.575-43.579c-1.006-16.669,2.812-27.749,3.954-44.409
							C228.671,163.798,239.916,156.546,229.784,134.372z" />
						</g>
						<g>
							<g>
								<path style="fill:#38303B;" d="M265.215,716.479c-0.523-5.689-1.045-11.378-1.568-17.066
								c-0.205-2.23-0.477-4.614-2.059-6.311c-2.774-2.976-7.937-2.395-12.177-1.558c-1.525,0.302-3.186,0.679-4.132,1.813
								c-1.183,1.418-0.772,3.4-0.304,5.109c2.093,7.648,4.187,15.297,6.28,22.945" />
								<g>
									<g>
										<path style="fill:#38303B;"
											d="M307.435,737.167c-10.452,0.356-19.017,0.634-29.468,0.99
										c-3.197,0.109-28.576-0.349-32.23-0.286c-1.206,0.021-2.535-0.001-3.441-0.796c-1.066-0.935-1.125-2.549-1.055-3.965
										c0.277-5.6,1.316-11.163,3.076-16.487c0.401-1.212,0.991-2.563,2.211-2.938c1.122-0.344,2.283,0.292,3.303,0.871
										c4.13,2.341,4.413,2.321,9.317,1.26c1.206-0.261,5.896-1.781,7.038-2.247c1.263-0.516,2.692-0.292,4.033-0.04
										c11.567,2.176,22.844,5.891,33.439,11.015c2.405,1.163,4.887,2.499,6.309,4.76c1.422,2.261,1.302,5.709-0.94,7.162" />
									</g>
								</g>
							</g>
							<g>
								<path style="fill:#38303B;" d="M35.293,679.76c4.625-3.354,9.249-6.709,13.873-10.063c1.813-1.315,3.789-2.676,6.205-2.479
								c4.236,0.345,7.554,5.069,10.009,9.189c0.884,1.482,1.809,3.129,1.65,4.68c-0.199,1.94-1.977,2.916-3.591,3.662
								c-7.228,3.342-14.456,6.684-21.683,10.026" />
								<g>
									<g>
										<path style="fill:#38303B;" d="M46.948,740.154c-5.232-9.055-9.509-16.481-14.742-25.535
										c-1.601-2.77-13.141-25.378-14.916-28.572c-0.586-1.054-1.192-2.237-0.917-3.411c0.323-1.38,1.72-2.192,3.002-2.797
										c5.072-2.391,10.469-4.093,15.995-5.045c1.257-0.216,2.728-0.332,3.633,0.568c0.832,0.828,0.817,2.152,0.786,3.325
										c-0.122,4.746,0.028,4.986,3.273,8.814c0.798,0.941,4.346,4.364,5.295,5.152c1.049,0.872,1.525,2.238,1.933,3.539
										c3.524,11.23,5.553,22.928,6.019,34.688c0.105,2.669,0.095,5.488-1.231,7.807s-4.425,3.835-6.761,2.541" />
									</g>
								</g>
							</g>
							<g>
								<g>
									<path style="fill:#38303B;" d="M176.208,444.609c19.518,80.664,37.186,165.412,63.494,243.834
									c2.091,6.233,5.119,16.963,8.103,17.323c4.172,0.503,7.743-0.059,11.667-0.849c3.244-0.653,5.461-3.623,5.089-6.884
									c-13.604-119.251-12.822-239.598-41.694-355.705c-1.021-4.106-53.999,2.794-53.999,2.794" />
								</g>
								<g>
									<path style="fill:#38303B;" d="M54.869,685.638c0.745,2.052,3.133,3.014,5.062,1.993
									c28.185-14.912,52.804-39.771,73.218-70.568c29.972-45.216,48.282-80.986,64.371-134.361
									c12.372-41.044,22.694-84.064,18.195-126.937c-19.538,1.561-39.005,4.175-58.303,7.828c-3.943,0.747-4.853,1.05-7.627,4.162
									c-2.656,2.98-4.003,10.635-4.66,14.704c-7.447,46.163-8.097,91.203-17.109,137.042
									c-10.897,55.421-35.582,113.51-77.079,148.281c-1.171,0.981-1.616,2.574-1.095,4.01L54.869,685.638z" />
								</g>
							</g>
						</g>
						<g>
							<path style="fill:#2EA8BC;" d="M135.159,405.473l2.158,7.625c0.863,3.75,5.061,8.909,9.786,8.904
							c28.792-0.029,57.586-0.371,86.373-1.027c2.306-0.052,4.848-0.184,6.509-1.49c1.414-1.112,1.813-2.794,2.141-4.362
							c0.932-4.454,1.863-8.908,2.795-13.361" />
						</g>
						<g>
							<path style="fill:#F7B094;" d="M297.532,375.391c4.241,4.378,20.252,23.637,22.965,28.982c2.934,5.78,5.034,12.194,9.45,16.97
							c0.86,0.929,2.892,0.041,3.04-1.295c0.273-2.456,0.157-4.865-0.345-7.141c-0.287-1.303,1.681-2.5,2.852-1.755
							c0.874,0.557,1.599,1.378,2.169,2.162c3.567,4.906,7.147,8.295,10.715,13.2c1.506,2.072,3.793,5.23,5.845,6.865
							c0.965,0.769,1.598-0.304,1.349-1.49c-0.215-1.025-1.908-4.693-1.563-4.303c0.773,0.871,2.733,0.091,2.273-1.738
							c-1.94-7.741-6.941-17.063-10.424-21.649c-8.76-11.532-28.269-24.781-36.997-37.104" />
						</g>
						<g>
							<path style="fill:#2EA8BC;" d="M210.943,281.675c20.779,35.242,50.104,68.76,85.024,97.178
							c3.774,3.071,6.552,5.618,10.342,4.509c5.308-1.553,13.58-6.514,9.767-11.668c-18.003-24.339-41.69-51.817-51.185-77.537
							c-4.281-11.596-7.653-23.25-13.402-34.753c-5.75-11.503-14.205-24.405-26.193-31.495" />
						</g>
						<g>
							<path style="fill:#92D5E4;" d="M145.563,415.354c-6.221,0.206-11.146-5.86-12.166-12c-1.021-6.14,5.762-19.531,4.714-25.962
							c-1.483-9.096-11.498-89.783,5.86-134.108c3.954-10.098,10.682-20.262,21.13-23.165c5.522-1.535,11.376-0.83,17.105-0.68
							c11.94,0.313,24.557-1.72,35.337,3.423c18.376,8.766,22.002,32.88,23.214,53.204c1.011,16.955,2.022,33.909,3.033,50.864
							c1.26,21.128,8.834,40.386,2.652,57.454c-1.82,5.026,5.166,19.305,1.765,23.429c-3.791,4.598-14.058,3.083-20.011,3.357
							c-24.565,1.13-49.131,2.26-73.697,3.39" />
						</g>
						<path style="fill:#38303B;" d="M249.468,266.298l-3.564-3.427c-0.203-0.195-0.21-0.519-0.014-0.722l35.981-37.428
						c0.195-0.203,0.519-0.21,0.722-0.014l3.564,3.426c0.203,0.196,0.21,0.519,0.014,0.722l-35.981,37.428
						C249.995,266.487,249.671,266.493,249.468,266.298z" />
						<g>
							<path style="fill:#2EA8BC;" d="M190.255,358.412c-5.368,4.603-19.516,12.195-25.283,16.287
							c-4.31,3.057-11.9,0.058-18.189-6.658c-4.34-4.635-7.786-14.007-9.668-20.072c-3.552-11.453-4.998-27.364-5.601-41.376
							c-0.796-18.489,1.195-35.236,2.881-48.768c1.686-13.531,11.274-31.803,21.051-35.625c14.062-5.497,20.283,0.346,22.383,21.237
							c1.503,14.959-1.844,27.688-4.036,53.043c-0.992,11.474-2.087,32.028-2.087,32.028L190.255,358.412z" />
						</g>
						<g>
							<path style="fill:#F7B094;" d="M214.316,295.424c4.307-4.294,20.679-23.211,23.536-28.479
							c3.091-5.698,5.393-12.033,9.887-16.719c0.875-0.912,2.819-0.009,2.911,1.317c0.167,2.437-0.042,4.824-0.622,7.075
							c-0.332,1.288,4.391,2.649,5.562,1.923c0.874-0.542,15.494-15.859,15.846-16.241c0.788-0.855,2.666-0.061,2.146,1.748
							c-2.2,7.653-7.447,16.839-11.024,21.346c-8.997,11.336-28.536,24.257-37.533,36.377" />
						</g>
						<g>
							<path style="fill:#2EA8BC;" d="M164.415,374.36c6.948-1.314,21.755-10.967,28.115-18.602
							c10.03-12.042,41.941-51.096,42.72-57.57c0.331-2.749-8.646-10.596-12.165-14.148c-2.098-2.118-19.1,17.992-28.144,25.924
							c-2.804,2.459-19.222,15.444-27.041,20.929" />
						</g>
						<g>
							<g>
								<path style="fill:#FFFFFF;" d="M159.429,331.69c8.06-1.687,15.264-5.88,21.823-10.668
								c6.556-4.855,12.679-10.285,18.559-15.959c5.93-5.626,11.619-11.507,17.291-17.403l2.13-2.209l0.532-0.552
								c0.178-0.189,0.405-0.398,0.645-0.546c0.482-0.315,1.051-0.479,1.62-0.492c0.57-0.005,1.142,0.144,1.626,0.447
								c0.506,0.312,0.818,0.731,1.185,1.076l2.156,2.185l8.555,8.811l-8.9-8.463l-2.207-2.133
								c-0.381-0.348-0.715-0.752-1.097-0.964c-0.391-0.233-0.849-0.34-1.302-0.327c-0.453,0.022-0.899,0.161-1.27,0.417
								c-0.362,0.23-0.669,0.65-1.032,1.021l-2.082,2.258c-5.563,6.012-11.266,11.897-17.16,17.597
								c-5.954,5.629-12.1,11.101-18.804,15.86c-3.376,2.339-6.869,4.527-10.575,6.312
								C167.404,329.701,163.477,331.044,159.429,331.69z" />
							</g>
							<g>
								<path style="fill:#FFFFFF;" d="M170.24,327.864c-2.091-0.887-4.139-1.691-6.229-2.446c-2.091-0.754-4.169-1.458-6.362-2.045
								c1.139-0.121,2.291-0.004,3.41,0.202c1.124,0.203,2.219,0.525,3.292,0.903c1.066,0.398,2.111,0.853,3.106,1.409
								C168.451,326.439,169.414,327.072,170.24,327.864z" />
							</g>
						</g>
						<g>
							<g>
								<g>
									<path style="fill:#F7B094;" d="M178.925,217.759c2.005-8.346,4.924-20.636,6.3-26.271c0.566-2.317,1.132-4.635,1.775-6.931
									c0.145-0.519,0.319-1.079,0.678-1.407c0.3-0.275,0.669-0.329,1.014-0.341c3.402-0.12,6.052,2.733,9.046,4.31
									c3.66,1.928,7.951,1.961,11.678,3.718c0.448,0.212,0.929,0.505,1.054,1.104c0.072,0.347,0.009,0.738-0.055,1.112
									c-1.149,6.776-2.194,25.339-2.872,33.956c-0.379,4.814-8.96,7.574-17.643,5.155
									C179.45,229.251,178.127,221.08,178.925,217.759z" />
									<g>
										<path style="fill:#E89C82;"
											d="M187.679,183.15c0.3-0.275,0.669-0.329,1.014-0.341c3.401-0.12,6.052,2.733,9.046,4.31
										c3.66,1.928,7.951,1.961,11.678,3.718c0.448,0.212,0.929,0.505,1.054,1.104c0.072,0.347,0.009,0.738-0.055,1.112
										c-0.642,3.788-1.284,7.575-1.926,11.363c-3.99,1.76-8.111,2.534-12.009,1.8c-5.35-1.006-10.118-5.229-12.061-11.428
										c0.268-1.1,0.537-2.2,0.805-3.3c0.566-2.317,1.132-4.635,1.776-6.931C187.146,184.037,187.32,183.478,187.679,183.15z" />
									</g>
								</g>
								<g>
									<path style="fill:#F7B094;"
										d="M179.205,177.352c-4.959-0.626-9.533-3.36-10.406-7.081c-0.873-3.721,2.906-8.038,7.964-8.3" />
								</g>
								<g>
									<path style="fill:#F7B094;" d="M178.741,177.705c5.557,18.527,18.767,20.653,32.638,24.813
									c2.451,0.735,6.526,0.987,9.105,0.653c6.333-0.821,9.082-6.935,10.229-12.094c1.996-8.981,2.898-18.123,2.689-27.248
									c-0.144-6.28-0.861-12.7-4.073-18.403c-3.212-5.703-9.329-10.624-16.892-11.708c-9.419-1.349-18.692,3.433-24.856,9.417
									c-9.096,8.83-13.578,21.249-9.518,32.301" />
								</g>
								<g>
									<path style="fill:#F7B094;"
										d="M233.379,163.531c0.115,5.784,0.328,4.822,0.955,8.115c0.068,0.357,0.84,3.165,2.821,4.454
									c1.562,1.016,1.987,3.372,0.657,4.697c-0.74,0.737-1.475,1.071-2.526,1.277c-1.484,0.29-2.95-0.081-3.823-1.297" />
								</g>
							</g>
							<g>
								<path style="fill:#38303B;" d="M164.947,163.844c13.946-1.578,26.743-6.8,38.311-13.027
								c5.402-2.907,10.694-6.127,14.358-10.417c1.996-2.337,3.448-5.506,1.555-7.975c-2.06-2.688-6.77-2.966-10.656-2.668
								c-2.815,0.216-5.609,0.566-8.363,1.047c-4.649,0.813-9.238,2.023-13.183,4.097c-4.532,2.383-8.018,5.793-11.387,9.179
								c-3.454,3.471-7,7.254-7.366,11.718" />
							</g>
							<g>
								<g>
									<path style="fill:#38303B;" d="M213.092,153.777c-0.192,0.155,0.05,0.398,0.34,0.416c0.29,0.018,0.565-0.101,0.818-0.209
									c3.082-1.31,7.007-1.619,10.31-0.811c0.507,0.124,1.024,0.275,1.571,0.243c0.548-0.032,1.128-0.326,1.111-0.695
									c-0.007-0.158-0.121-0.302-0.253-0.43c-0.559-0.538-1.458-0.868-2.381-1.09c-2.981-0.714-6.524-0.397-9.259,0.827
									c-1.023,0.458-1.971,1.071-2.35,1.853" />
								</g>
								<g style="opacity:0.54;">
									<path style="fill:#ED825D;" d="M198.445,177.257c-0.068,4.568,3.845,8.301,8.739,8.337c4.893,0.036,8.915-3.638,8.982-8.206
									c0.067-4.569-3.846-8.301-8.739-8.337C202.533,169.014,198.512,172.689,198.445,177.257z" />
								</g>
								<path style="fill:#38303B;" d="M219.736,163.014c0.174,2.233,1.392,3.987,2.719,3.918c1.327-0.069,2.263-1.935,2.089-4.168
								c-0.174-2.233-1.392-3.987-2.72-3.917C220.497,158.916,219.562,160.782,219.736,163.014z" />
							</g>
						</g>
						<g>
							<g>
								<path style="fill:#F4F6F9;" d="M175.431,219.824c3.106,7.579,9.96,13.114,18.178,14.034
								c8.656,0.969,17.235-4.341,18.293-13.336c0.158-1.343-1.262-2.5-2.5-2.5c-1.483,0-2.341,1.153-2.5,2.5
								c-0.745,6.326-7.866,9.171-13.46,8.307c-5.735-0.886-10.98-4.944-13.189-10.334c-0.512-1.248-1.661-2.135-3.075-1.746
								C175.995,217.073,174.916,218.567,175.431,219.824L175.431,219.824z" />
							</g>
						</g>
					</g>
				</g>
			</g>
		</g>
	</g>
</svg>