<svg id="Layer_1" data-name="Layer 1" xmlns="http://www.w3.org/2000/svg" viewBox="0 0 435.01 453"><defs><style>.cls-1{fill:#c79539;}</style></defs><path class="cls-1" d="M268.69,164.67l-3-3.6a1.33,1.33,0,0,1,.23-1.94,1.38,1.38,0,0,1,.79-.26,1.36,1.36,0,0,1,.89.34l8.59,7.69h6.18l1.32-1.4h3.56l.66.65h3.36v-3.23L284,155.3a1.6,1.6,0,0,1,.11-2.3,1.58,1.58,0,0,1,1-.39,1.57,1.57,0,0,1,1.11.46l12.35,12.23,3.89-2V149.21l-39.76-40.09h-1.91V164l7.91,3.36Zm15.56-22.49.72-.72a1,1,0,0,1,1.43,0l11.32,11.32a1,1,0,0,1,0,1.44l-.71.72a1,1,0,0,1-1.44,0l-11.32-11.32A1,1,0,0,1,284.25,142.18ZM266,123.91l.72-.71a1,1,0,0,1,1.44,0l11.32,11.32a1,1,0,0,1,0,1.43l-.72.72a1,1,0,0,1-1.43,0L266,125.35A1,1,0,0,1,266,123.91Zm0,12.27.72-.71a1,1,0,0,1,1.44,0l11.32,11.32a1,1,0,0,1,0,1.44l-.72.71a1,1,0,0,1-1.43,0L266,137.62A1,1,0,0,1,266,136.18Zm-.52,11.61.71-.72a1,1,0,0,1,1.44,0l11.32,11.32a1,1,0,0,1,0,1.44l-.71.71a1,1,0,0,1-1.44,0l-11.32-11.32A1,1,0,0,1,265.46,147.79Z"/><rect class="cls-1" x="199.86" y="181.25" width="7.38" height="45.89" rx="3.39"/><path class="cls-1" d="M194.71,223.68a3.16,3.16,0,0,0,3.17,3.16V185.37a10.14,10.14,0,0,1,.91-4.2l.65-1.4a17.75,17.75,0,0,0,1.6-7.35V123.49a1.79,1.79,0,0,0-1.79-1.79h-2.74a1.8,1.8,0,0,0-1.8,1.79Z"/><path class="cls-1" d="M188.38,221.08a3.16,3.16,0,0,0,3.17,3.16v-96.3a10.14,10.14,0,0,1,.91-4.2l.65-1.4a17.75,17.75,0,0,0,1.6-7.35V56.3a1.79,1.79,0,0,0-1.79-1.79h-2.74a1.8,1.8,0,0,0-1.8,1.79Z"/><path class="cls-1" d="M172.71,221a2,2,0,0,0,2-2V106.8a2,2,0,0,0-2-2H170.8a2,2,0,0,0-2,2L170.75,219A2,2,0,0,0,172.71,221Z"/><path class="cls-1" d="M168.84,219v-51.4a1.49,1.49,0,0,0-1.49-1.48h-4a1.48,1.48,0,0,0-1.48,1.48v46.88A4.52,4.52,0,0,0,166.4,219Z"/><path class="cls-1" d="M351.12,192.56c-5.53-3.91-19.63-16.52-19.63-16.52v-6.42a2.29,2.29,0,0,0-2.27-2.28,1.39,1.39,0,0,0-1.39,1.39v6.62c-1,3-4.25,5.79-4.25,5.79v1.23c1.53.94,4.15.75,5.24-.34s3.51-.6,3.51-.6l.74,6.88c11,3,11,10.09,11,10.09v4c-11.07,4.25-22.05-.59-22.05-.59l-.69,3.56c8.85,8.95,26.48,5.93,26.48,5.93,3.28,4.65,11.59,7.07,11.59,7.07,6.73-3.21,8.41-11.86,8.41-11.86S356.66,196.47,351.12,192.56ZM359.73,208c-4.06,3.21-11,.35-11,.35a11.9,11.9,0,0,0,4.06-10.64,80.78,80.78,0,0,1,6.13,6.68A5.43,5.43,0,0,1,359.73,208Z"/><path class="cls-1" d="M246,181.25c-7.32,12.13,7.41,17.54,7.41,17.54-8.5,10.68-19.92,1-19.92,1-4,13.95,12.7,20.13,12.7,20.13l14.25-14.53,1.28,1.22c-11.67,11-12.76,26.61-12.76,26.61h2c25.91-52,64.88-55.65,64.88-55.65-17.27-4.81-36.26,9-36.26,9,16.74-18.07,43-12.33,43-12.33v-1.72s-8.31-9.23-24.73-5.93-36.44,2.62-36.44,2.62c2.91,7.37,12,5.24,12,5.24v1A36.51,36.51,0,0,1,260,183.66C251.19,186.92,246,181.25,246,181.25Z"/><path class="cls-1" d="M173.62,236.77c35.07,5.41,55.16-3.69,59.82,4.61s6.05,17,20.78,19.65c0,0,1-1.84-3.72-4.88s-10-6.85-10.09-11.93c0,0,10,17.37,37.25,8.37,0,0,6.27-2,15.56-.69,0,0-8.57-7.68-19.65-7.35s-14.17,4.42-19,1.52-12.13-15.89-22.81-17.48-55.32,8.84-94.49-26.5C137.22,202.09,138.54,231.36,173.62,236.77Z"/><path class="cls-1" d="M144.47,230.7s5.94,23.87,31.13,23.87,38.5-12.66,38.5-12.66S174.94,256,144.47,230.7Z"/><path class="cls-1" d="M195.77,266.84c21-6.2,25.45-20.58,25.45-20.58-27.43,21.37-53.54,12.27-53.54,12.27S174.8,273,195.77,266.84Z"/><path class="cls-1" d="M211.46,275.93a37.32,37.32,0,0,0,19.26-23.34s-20.18,21.23-45.23,20.84C185.49,273.43,195.51,284,211.46,275.93Z"/><path class="cls-1" d="M237.84,258.53A61.16,61.16,0,0,1,210.54,284S238.36,284.51,237.84,258.53Z"/><path class="cls-1" d="M245.68,273.56c2-7.32-.46-10.88-.46-10.88s-.69,6.46-11.21,19.39A12.3,12.3,0,0,0,245.68,273.56Z"/><path class="cls-1" d="M252.52,265a22.34,22.34,0,0,0-4,12.18,8.43,8.43,0,0,0,4.85-4.71A8.53,8.53,0,0,0,252.52,265Z"/><path class="cls-1" d="M255.64,297.89c19.15-2,30.14-15.18,32.24-17.8a76.85,76.85,0,0,1-62.5,10.68A48.07,48.07,0,0,0,255.64,297.89Z"/><path class="cls-1" d="M329,235.78c0,.3-11.77,3.26-11.77,3.26l-6.72-13.45c.62-7.53,15.33-13,15.33-13-13.95-3.86-19.78,8.5-19.68,12.06s8.31,15.73,8.31,15.73l-6.43,3.46,3.85.79c2.77-2.08,11.08-3.26,11.08-3.26s-7.52,12.36-15.43,18.69-15.72,4.9-15.72,4.9,2.67,4.89,10.38,2.72,22.4-20.08,22.4-20.08l2.43.59-11.28,11,.88,1.38,11.09-8.9c-3.36,7.72-3.66,22.06-3.66,22.06-14.54,7.12-3.26,18.29-3.26,18.29l12.65-16.41s.4-11,.4-16.32,3.76-11.67,3-16.68S329,235.48,329,235.78Z"/><path class="cls-1" d="M230.45,206.84l.66,19.71s5.67.2,5.8-4.88c.11-4-3.3-11.08-4.68-13.76A2,2,0,0,0,230.45,206.84Z"/><path class="cls-1" d="M240,227.24c1.18,4.91,5.14,3.86,5.14,3.86s.35-9.28-2.11-11.74C243,219.36,238.76,222.32,240,227.24Z"/><path class="cls-1" d="M183,52.21a3.45,3.45,0,0,0,2.58,3.36l.83.21c2.27-2.47,1.88-7.71,2-23.14S185.22,0,185.22,0c-3.26,8.8-4.45,32.64-3.16,39A71.44,71.44,0,0,1,183,52.21Z"/><path class="cls-1" d="M214.51,226.84h1.75a1.86,1.86,0,0,0,1.86-1.86V72.84a1,1,0,0,1,1.75-.71l1.29,1.31a1,1,0,0,1,.29.72V225a1.86,1.86,0,0,0,1.86,1.86h1.75a1.86,1.86,0,0,0,1.86-1.86V81.8a1,1,0,0,1,1.75-.72l1.59,1.62a1,1,0,0,1,.29.72v110a1.86,1.86,0,0,0,1.86,1.86h1.75a1.86,1.86,0,0,0,1.86-1.86V91.06a1,1,0,0,1,1.75-.72L239.36,92a1,1,0,0,1,.29.72V200.23a1.74,1.74,0,0,0,.06.45h0a9.25,9.25,0,0,0,2,.9,10.79,10.79,0,0,0,2.14.22,9.13,9.13,0,0,0,6.2-2.4c-2.5-1.41-6.08-4-7.51-8.09-1.22-3.46-.64-7.2,1.71-11.1l.89-1.48V100.32a1,1,0,0,1,1.75-.72l1.59,1.62a1,1,0,0,1,.29.72v78.77a1.15,1.15,0,0,0,0,.26,1.83,1.83,0,0,0,1.83,1.6h1.75a1.61,1.61,0,0,0,.44-.06,1.84,1.84,0,0,0,1.42-1.8V98.08l-5.47-5.56-3.63-3.7-5.47-5.56L236,79.56,230.55,74l-3.63-3.7-5.43-5.52-3.37-3.43-5.47-5.57V225A1.86,1.86,0,0,0,214.51,226.84Z"/><path class="cls-1" d="M312.42,290.82a1.92,1.92,0,0,0-2.79-1.3,122.11,122.11,0,0,1-135-202.37v9a17.75,17.75,0,0,0,1.6,7.35l.65,1.4a10.14,10.14,0,0,1,.91,4.2v113.4a3.16,3.16,0,0,0,3.17-3.16V43.45a1.79,1.79,0,0,0-1.79-1.8h-2.74a1.8,1.8,0,0,0-1.8,1.8v35A129,129,0,0,0,309.94,297.15a5.08,5.08,0,0,0,2.64-5.54Z"/><path class="cls-1" d="M62.6,287.41,57.87,276l-15-36a8.32,8.32,0,0,0-15.38,0l-15,36L7.76,287.41l-6.23,15a.62.62,0,0,0,.57.85H12.57a.62.62,0,0,0,.57-.38l6.42-15.44H50l6.42,15.44a.62.62,0,0,0,.57.38H68.26a.62.62,0,0,0,.57-.85ZM24.29,276l9.33-22.44a1.24,1.24,0,0,1,2.28,0L45.23,276Z"/><path class="cls-1" d="M350.09,375.58l-4.73-11.37-15-36a8.33,8.33,0,0,0-15.39,0l-15,36-4.73,11.37-6.23,15a.62.62,0,0,0,.57.85h10.47a.62.62,0,0,0,.57-.38l6.42-15.44h30.4L343.87,391a.62.62,0,0,0,.57.38h11.31a.62.62,0,0,0,.57-.85Zm-38.31-11.37,9.33-22.43a1.23,1.23,0,0,1,2.27,0l9.34,22.43Z"/><path class="cls-1" d="M132.85,293v8.93a1.3,1.3,0,0,1-1.3,1.29H86a1.38,1.38,0,0,1-1.38-1.38v-65.6A1.38,1.38,0,0,1,86,234.87H95.8a1.38,1.38,0,0,1,1.38,1.38v56h34.88A.79.79,0,0,1,132.85,293Z"/><path class="cls-1" d="M40.45,357.56h-4a16,16,0,0,0,16-16v-.51a16,16,0,0,0-16-16H1.38A1.38,1.38,0,0,0,0,326.45v63.61H40.45a16.25,16.25,0,0,0,0-32.5ZM12.53,335.61H32a8.62,8.62,0,1,1,0,17.23H12.53ZM40.85,378.1a8.6,8.6,0,0,1-6.1,2.52H12.53V363.38H34.75a8.63,8.63,0,0,1,6.1,14.72Z"/><path class="cls-1" d="M187.71,365.77a20.69,20.69,0,0,0-5.19-40.71H150.13a1.38,1.38,0,0,0-1.38,1.39v65.6a.34.34,0,0,0,0,.1h12.51V366.43H173l17.81,25.72h15.13Zm-6.81-8.55H161.27V336.9H180.9a9.53,9.53,0,0,1,9.53,9.53v1.26a9.53,9.53,0,0,1-8.66,9.49A8.31,8.31,0,0,1,180.9,357.22Z"/><path class="cls-1" d="M259.16,365.77A20.69,20.69,0,0,0,254,325.06H221.58a1.38,1.38,0,0,0-1.38,1.39v65.6a.34.34,0,0,0,0,.1h12.51V366.43h11.72l17.81,25.72h15.13Zm-6.81-8.55H232.72V336.9h19.63a9.53,9.53,0,0,1,9.53,9.53v1.26a9.53,9.53,0,0,1-8.66,9.49A8.31,8.31,0,0,1,252.35,357.22Z"/><path class="cls-1" d="M434.64,383.54l-6.73-5.62a34.41,34.41,0,1,0-8.21,8.39l7.45,6.21a1,1,0,0,0,1.46-.13l6.16-7.39A1,1,0,0,0,434.64,383.54Zm-16.12-13.46-11.21-9.35a1,1,0,0,0-1.46.14l-6.17,7.39a1,1,0,0,0,.14,1.46l10.07,8.4a22.25,22.25,0,1,1,8.63-8Z"/><path class="cls-1" d="M312.24,408.07a2.49,2.49,0,0,0-2.48-2.49H275.54a2.49,2.49,0,1,0,0,5h14.92v38.59a2.48,2.48,0,0,0,5,0V410.55h14.34A2.48,2.48,0,0,0,312.24,408.07Z"/><path class="cls-1" d="M389.08,405.58H354.86a2.49,2.49,0,1,0,0,5h14.92v38.59a2.48,2.48,0,0,0,5,0V410.55h14.34a2.49,2.49,0,0,0,0-5Z"/><path class="cls-1" d="M23.73,433.69a14.25,14.25,0,0,0,10.91-13.85,14.28,14.28,0,0,0-14.27-14.27H.56V450.5a2.5,2.5,0,0,0,5,0V434.11h12l15.13,18a2.51,2.51,0,0,0,1.92.9,2.51,2.51,0,0,0,1.91-4.11ZM5.56,429.11V410.57H20.37a9.27,9.27,0,0,1,0,18.54Z"/><path class="cls-1" d="M78.06,410.57a2.5,2.5,0,0,0,0-5H45.37v46.07H78.06a2.5,2.5,0,1,0,0-5H50.37V431.1H74.9a2.5,2.5,0,0,0,0-5H50.37V410.57Z"/><path class="cls-1" d="M228.39,410.57a2.5,2.5,0,1,0,0-5H195.7v46.07h32.69a2.5,2.5,0,0,0,0-5H200.7V431.1h24.53a2.5,2.5,0,1,0,0-5H200.7V410.57Z"/><path class="cls-1" d="M432.33,446.64h-27.7V431.1h24.53a2.5,2.5,0,0,0,0-5H404.63V410.57h27.7a2.5,2.5,0,0,0,0-5h-32.7v46.07h32.7a2.5,2.5,0,1,0,0-5Z"/><path class="cls-1" d="M109.83,408.44a3.24,3.24,0,0,0-2.94-1.86h0a3.25,3.25,0,0,0-2.94,1.88c-1.72,3.68-6.4,13.64-10.63,22.72-2.12,4.55-4.12,8.86-5.59,12.06-3,6.48-3,6.48-2.2,7.7a2.5,2.5,0,0,0,4.33-.18,2.26,2.26,0,0,0,.19-.49c.35-.86,2.22-5,5.27-11.53h23.6l5.77,11.95a2.5,2.5,0,1,0,4.5-2.17Zm-12.21,25.3c2.58-5.53,5.72-12.24,9.29-19.86l9.58,19.86Z"/><path class="cls-1" d="M335.28,408.43a3.25,3.25,0,0,0-2.95-1.85h0a3.24,3.24,0,0,0-2.93,1.88c-1.73,3.68-6.4,13.65-10.63,22.72-2.12,4.55-4.12,8.87-5.59,12.06-3,6.48-3,6.48-2.2,7.7a2.5,2.5,0,0,0,4.33-.18,2.92,2.92,0,0,0,.19-.49c.37-.93,2.41-5.38,5.26-11.53h23.61l5.77,11.95a2.51,2.51,0,0,0,2.25,1.42,2.55,2.55,0,0,0,1.09-.25,2.5,2.5,0,0,0,1.16-3.34Zm-12.21,25.31c2.83-6.08,6.12-13.11,9.29-19.86l9.58,19.86Z"/><path class="cls-1" d="M168,445.55H143.33V406.81a2.5,2.5,0,0,0-5,0v43.74H168a2.5,2.5,0,0,0,0-5Z"/><path class="cls-1" d="M261.69,428.61l-1.23-.48a55.17,55.17,0,0,0-6.92-2.21c-2.81-.68-5.64-1.53-7.36-3.19A7.37,7.37,0,0,1,244,416a8.1,8.1,0,0,1,4.78-6c4.47-2,10,.51,13.35,3.22l2.56,2.05a2.48,2.48,0,0,0,3.11-3.87l-2.56-2.05c-4.66-3.75-12-6.75-18.45-3.9a13.09,13.09,0,0,0-7.68,9.67,12.26,12.26,0,0,0,3.63,11.14c2.56,2.48,6.14,3.6,9.64,4.45a49.14,49.14,0,0,1,6.27,2c.58.23,1,.38,1.23.47h0a7.78,7.78,0,0,1,4.61,8.3c-.54,3.62-4.22,5.63-7.61,6-4.55.5-10.17-1.42-14-4.78l-3.63-3.19a2.48,2.48,0,0,0-3.28,3.72l3.64,3.2a24.81,24.81,0,0,0,15.77,6.09,19.27,19.27,0,0,0,2-.11c5.29-.59,11-4,12-10.21A12.68,12.68,0,0,0,261.69,428.61Z"/><path class="cls-1" d="M129,324.2v38.68a29.28,29.28,0,0,1-58.55,0V324.2H82.58v40.25a17.11,17.11,0,1,0,34.22,0V324.2Z"/></svg>