<svg xmlns="http://www.w3.org/2000/svg" viewBox="0 0 354.88 449.72"><defs><style>.cls-1{fill:#c19636;}</style></defs><g id="Layer_2" data-name="Layer 2"><g id="Layer_1-2" data-name="Layer 1"><path class="cls-1" d="M211.63,237.91l-4.38-5.2a1.93,1.93,0,0,1,.33-2.81,2,2,0,0,1,1.14-.37A1.94,1.94,0,0,1,210,230l12.41,11.11h8.93l1.91-2h5.14l.95.94h4.86v-4.67l-10.53-11a2.3,2.3,0,0,1,1.66-3.89,2.27,2.27,0,0,1,1.6.67l17.84,17.67L260.4,236V215.57L203,157.65H200.2v79.26l11.43,4.86Zm22.48-32.49,1-1a1.47,1.47,0,0,1,2.07,0l16.35,16.35a1.46,1.46,0,0,1,0,2.08l-1,1a1.5,1.5,0,0,1-2.08,0L234.11,207.5A1.5,1.5,0,0,1,234.11,205.42ZM207.71,179l1-1a1.48,1.48,0,0,1,2.08,0l16.36,16.36a1.47,1.47,0,0,1,0,2.06l-1,1a1.47,1.47,0,0,1-2.07,0L207.71,181.1A1.5,1.5,0,0,1,207.71,179Zm0,17.73,1-1a1.46,1.46,0,0,1,2.08,0l16.36,16.36a1.5,1.5,0,0,1,0,2.08l-1,1a1.45,1.45,0,0,1-2.07,0l-16.37-16.35A1.5,1.5,0,0,1,207.71,196.75ZM207,213.52l1-1a1.46,1.46,0,0,1,2.08,0l16.35,16.35a1.47,1.47,0,0,1,0,2.09l-1,1a1.46,1.46,0,0,1-2.08,0L207,215.59A1.45,1.45,0,0,1,207,213.52Z"/><rect class="cls-1" x="112.18" y="261.87" width="10.67" height="66.3" rx="4.89"/><path class="cls-1" d="M104.75,323.16a4.56,4.56,0,0,0,4.58,4.57V267.81a14.56,14.56,0,0,1,1.31-6.06l.94-2a25.57,25.57,0,0,0,2.31-10.62V178.42a2.59,2.59,0,0,0-2.59-2.6h-4a2.59,2.59,0,0,0-2.59,2.6Z"/><path class="cls-1" d="M95.6,319.41a4.56,4.56,0,0,0,4.58,4.57V184.85a14.76,14.76,0,0,1,1.31-6.07l.94-2a25.62,25.62,0,0,0,2.32-10.62V81.34a2.6,2.6,0,0,0-2.6-2.59h-4a2.59,2.59,0,0,0-2.59,2.59Z"/><path class="cls-1" d="M73,319.21a2.83,2.83,0,0,0,2.83-2.83V154.3A2.84,2.84,0,0,0,73,151.46H70.19a2.83,2.83,0,0,0-2.83,2.88l2.76,162.09A2.84,2.84,0,0,0,73,319.21Z"/><path class="cls-1" d="M67.36,316.36V242.1A2.14,2.14,0,0,0,65.22,240H59.45a2.14,2.14,0,0,0-2.14,2.14v67.72a6.53,6.53,0,0,0,6.53,6.54Z"/><path class="cls-1" d="M330.72,278.2c-8-5.65-28.36-23.87-28.36-23.87v-9.27a3.29,3.29,0,0,0-3.28-3.29,2,2,0,0,0-2,2v9.57c-1.43,4.39-6.14,8.36-6.14,8.36v1.78c2.21,1.36,6,1.08,7.57-.49s5.07-.87,5.07-.87l1.07,9.94c15.94,4.35,15.94,14.58,15.94,14.58v5.78c-16,6.14-31.86-.85-31.86-.85l-1,5.14c12.79,12.93,38.26,8.57,38.26,8.57,4.74,6.72,16.75,10.21,16.75,10.21,9.72-4.64,12.15-17.13,12.15-17.13S338.72,283.85,330.72,278.2Zm12.44,22.3c-5.87,4.63-15.86.5-15.86.5,7.64-7,5.86-15.37,5.86-15.37s7.21,7.15,8.86,9.65A7.88,7.88,0,0,1,343.16,300.5Z"/><path class="cls-1" d="M178.76,261.87c-10.57,17.52,10.72,25.34,10.72,25.34-12.29,15.43-28.79,1.42-28.79,1.42-5.78,20.15,18.36,29.08,18.36,29.08l20.58-21,1.85,1.76c-16.86,15.86-18.43,38.44-18.43,38.44h2.86c37.44-75.16,93.73-80.4,93.73-80.4-24.95-6.95-52.39,13-52.39,13,24.2-26.1,62.11-17.82,62.11-17.82V249.2s-12-13.34-35.72-8.58S201,244.41,201,244.41c4.22,10.65,17.36,7.57,17.36,7.57v1.5s-6.57,7.15-19.29,11.86S178.76,261.87,178.76,261.87Z"/><path class="cls-1" d="M74.27,342.07c50.67,7.82,79.69-5.33,86.42,6.67s8.75,24.58,30,28.39c0,0,1.38-2.67-5.38-7.05s-14.39-9.91-14.58-17.24c0,0,14.47,25.1,53.82,12.1,0,0,9-3,22.49-1,0,0-12.39-11.1-28.39-10.62s-20.48,6.38-27.53,2.19-17.53-23-33-25.25S78.27,343,21.68,292C21.68,292,23.59,334.26,74.27,342.07Z"/><path class="cls-1" d="M32.16,333.31s8.57,34.48,45,34.48,55.63-18.28,55.63-18.28S76.17,369.89,32.16,333.31Z"/><path class="cls-1" d="M106.27,385.51c30.3-8.95,36.77-29.72,36.77-29.72-39.63,30.87-77.35,17.72-77.35,17.72S76,394.47,106.27,385.51Z"/><path class="cls-1" d="M128.94,398.66a53.89,53.89,0,0,0,27.82-33.72S127.61,395.61,91.41,395C91.41,395,105.89,410.28,128.94,398.66Z"/><path class="cls-1" d="M167.05,373.51s-11.24,23.24-39.44,36.77C127.61,410.28,167.81,411,167.05,373.51Z"/><path class="cls-1" d="M178.38,395.23c2.89-10.57-.66-15.72-.66-15.72s-1,9.34-16.2,28C161.52,407.52,173.55,408.16,178.38,395.23Z"/><path class="cls-1" d="M188.27,382.87a32.19,32.19,0,0,0-5.79,17.6,12.16,12.16,0,0,0,7-6.8A12.38,12.38,0,0,0,188.27,382.87Z"/><path class="cls-1" d="M192.77,430.38c27.66-2.91,43.54-21.93,46.58-25.72A111,111,0,0,1,149,420.09,69.55,69.55,0,0,0,192.77,430.38Z"/><path class="cls-1" d="M298.79,340.65c0,.42-17,4.71-17,4.71l-9.72-19.43c.89-10.88,22.15-18.72,22.15-18.72-20.15-5.57-28.58,12.29-28.44,17.43s12,22.72,12,22.72l-9.29,5,5.57,1.15c4-3,16-4.72,16-4.72s-10.85,17.86-22.29,27-22.72,7.07-22.72,7.07,3.86,7.07,15,3.93,32.36-29,32.36-29l3.5.86-16.29,15.86,1.27,2,16-12.86c-4.85,11.15-5.28,31.87-5.28,31.87-21,10.28-4.72,26.43-4.72,26.43l18.29-23.72s.57-15.86.57-23.58,5.43-16.86,4.29-24.1S298.79,340.22,298.79,340.65Z"/><path class="cls-1" d="M156.38,298.83l1,28.48s8.19.29,8.38-7.05c.16-5.85-4.77-16-6.77-19.88A2.86,2.86,0,0,0,156.38,298.83Z"/><path class="cls-1" d="M170.1,328.31c1.71,7.1,7.43,5.57,7.43,5.57s.5-13.4-3.05-16.95C174.48,316.93,168.38,321.21,170.1,328.31Z"/><path class="cls-1" d="M87.82,75.44a5,5,0,0,0,3.73,4.84l1.2.31C96,77,95.46,69.44,95.6,47.15S91,0,91,0c-4.71,12.72-6.43,47.15-4.57,56.3C87.7,62.42,87.86,70.66,87.82,75.44Z"/><path class="cls-1" d="M133.35,327.73h2.53a2.68,2.68,0,0,0,2.69-2.69V105.24a1.48,1.48,0,0,1,2.53-1L143,106.1a1.49,1.49,0,0,1,.42,1V325a2.68,2.68,0,0,0,2.69,2.69h2.52a2.68,2.68,0,0,0,2.69-2.69V118.18a1.48,1.48,0,0,1,2.53-1l2.3,2.34a1.49,1.49,0,0,1,.42,1V279.37a2.68,2.68,0,0,0,2.68,2.69h2.53a2.68,2.68,0,0,0,2.69-2.69V131.56a1.48,1.48,0,0,1,2.53-1l2.29,2.34a1.43,1.43,0,0,1,.42,1V289.28a2.37,2.37,0,0,0,.09.65v0h0a13.48,13.48,0,0,0,2.85,1.3,15.8,15.8,0,0,0,3.09.32,13.22,13.22,0,0,0,9-3.47c-3.61-2-8.78-5.82-10.85-11.69-1.76-5-.93-10.4,2.47-16l1.29-2.13V144.94a1.47,1.47,0,0,1,2.52-1l2.3,2.34a1.43,1.43,0,0,1,.42,1v113.8a1.64,1.64,0,0,0,0,.38,2.65,2.65,0,0,0,2.65,2.31H188a2.23,2.23,0,0,0,.63-.09,2.64,2.64,0,0,0,2.05-2.6V141.7l-7.9-8-5.24-5.35-7.91-8-5.24-5.35-7.9-8-5.25-5.34-7.84-8-4.87-5-7.91-8V325A2.68,2.68,0,0,0,133.35,327.73Z"/><path class="cls-1" d="M274.8,420.17a2.77,2.77,0,0,0-4-1.88,176.42,176.42,0,0,1-195-292.38v13a25.57,25.57,0,0,0,2.31,10.62l.94,2a14.56,14.56,0,0,1,1.31,6.06V321.49a4.56,4.56,0,0,0,4.58-4.56V62.77a2.59,2.59,0,0,0-2.59-2.59h-4a2.59,2.59,0,0,0-2.59,2.59v50.59A186,186,0,0,0,0,263.36C0,366.29,83.43,449.72,186.35,449.72a185.27,185.27,0,0,0,84.86-20.41,7.32,7.32,0,0,0,3.82-8Z"/></g></g></svg>