<svg xmlns="http://www.w3.org/2000/svg" viewBox="0 0 2501.28 798.29"><defs><style>.cls-1{fill:#fff;}</style></defs><g id="Layer_2" data-name="Layer 2"><g id="Layer_1-2" data-name="Layer 1"><path class="cls-1" d="M375.65,422.3l-7.77-9.23a3.43,3.43,0,0,1,.59-5,3.61,3.61,0,0,1,2-.66,3.44,3.44,0,0,1,2.28.87l22,19.72h15.85l3.38-3.59h9.13l1.7,1.67h8.61v-8.29l-18.69-19.54a4.08,4.08,0,0,1,2.95-6.9,4,4,0,0,1,2.84,1.18l31.68,31.37,10-5.08V382.65l-102-102.81h-4.9V420.53l20.28,8.62Zm39.91-57.68,1.84-1.84a2.62,2.62,0,0,1,3.67,0l29,29a2.59,2.59,0,0,1,0,3.69l-1.82,1.85a2.64,2.64,0,0,1-3.69,0l-29-29A2.66,2.66,0,0,1,415.56,364.62ZM368.7,317.77l1.85-1.82a2.59,2.59,0,0,1,3.69,0l29,29a2.62,2.62,0,0,1,0,3.67l-1.84,1.84a2.62,2.62,0,0,1-3.67,0l-29.06-29A2.64,2.64,0,0,1,368.7,317.77Zm0,31.47,1.85-1.82a2.59,2.59,0,0,1,3.69,0l29,29a2.64,2.64,0,0,1,0,3.69L401.43,382a2.57,2.57,0,0,1-3.67,0l-29.06-29A2.64,2.64,0,0,1,368.7,349.24ZM367.37,379l1.82-1.85a2.61,2.61,0,0,1,3.69,0l29,29a2.59,2.59,0,0,1,0,3.69l-1.82,1.82a2.59,2.59,0,0,1-3.69,0l-29-29A2.57,2.57,0,0,1,367.37,379Z"/><rect class="cls-1" x="199.12" y="464.83" width="18.94" height="117.69" rx="8.69"/><path class="cls-1" d="M185.93,573.63a8.09,8.09,0,0,0,8.13,8.11V475.39a26,26,0,0,1,2.33-10.77l1.67-3.59a45.59,45.59,0,0,0,4.1-18.85V316.7a4.6,4.6,0,0,0-4.6-4.6h-7a4.6,4.6,0,0,0-4.6,4.6Z"/><path class="cls-1" d="M169.7,567a8.09,8.09,0,0,0,8.12,8.11v-247a26,26,0,0,1,2.34-10.77l1.67-3.6a45.51,45.51,0,0,0,4.1-18.84V144.39a4.6,4.6,0,0,0-4.6-4.6h-7a4.59,4.59,0,0,0-4.6,4.6Z"/><path class="cls-1" d="M129.5,566.62a5,5,0,0,0,5-5V273.88a5,5,0,0,0-5-5h-4.9a5,5,0,0,0-5,5.12l4.9,287.71A5,5,0,0,0,129.5,566.62Z"/><path class="cls-1" d="M119.57,561.55V429.74a3.8,3.8,0,0,0-3.81-3.8H105.53a3.8,3.8,0,0,0-3.8,3.8V550a11.59,11.59,0,0,0,11.59,11.59Z"/><path class="cls-1" d="M587.05,493.83c-14.18-10-50.34-42.37-50.34-42.37V435a5.87,5.87,0,0,0-5.83-5.85,3.56,3.56,0,0,0-3.56,3.56v17c-2.54,7.8-10.9,14.85-10.9,14.85v3.15c3.92,2.41,10.64,1.93,13.44-.87s9-1.54,9-1.54l1.9,17.65C569,490.65,569,508.8,569,508.8v10.26c-28.38,10.9-56.54-1.51-56.54-1.51l-1.77,9.13c22.69,23,67.91,15.21,67.91,15.21,8.41,11.92,29.72,18.13,29.72,18.13,17.26-8.24,21.57-30.42,21.57-30.42S601.26,503.85,587.05,493.83Zm22.08,39.57c-10.41,8.23-28.16.89-28.16.89C594.54,521.86,591.38,507,591.38,507s12.8,12.69,15.72,17.13A14,14,0,0,1,609.13,533.4Z"/><path class="cls-1" d="M317.32,464.83c-18.77,31.11,19,45,19,45-21.81,27.39-51.1,2.53-51.1,2.53C275,548.11,317.83,564,317.83,564l36.52-37.24,3.3,3.12c-29.93,28.16-32.72,68.23-32.72,68.23H330c66.45-133.41,166.38-142.71,166.38-142.71-44.3-12.34-93,23-93,23,42.95-46.33,110.25-31.62,110.25-31.62v-4.4s-21.3-23.67-63.41-15.22-93.46,6.72-93.46,6.72c7.48,18.9,30.81,13.45,30.81,13.45V450S375.91,462.63,353.33,471,317.32,464.83,317.32,464.83Z"/><path class="cls-1" d="M131.83,607.2c89.95,13.87,141.45-9.47,153.41,11.84s15.52,43.62,53.3,50.39c0,0,2.45-4.74-9.55-12.51s-25.54-17.59-25.88-30.61c0,0,25.69,44.56,95.53,21.47,0,0,16.07-5.24,39.92-1.77,0,0-22-19.7-50.39-18.85S351.81,638.48,339.3,631s-31.11-40.75-58.51-44.8-141.86,22.65-242.3-68C38.49,518.26,41.87,593.34,131.83,607.2Z"/><path class="cls-1" d="M57.09,591.65s15.22,61.21,79.81,61.21,98.75-32.47,98.75-32.47S135.21,656.58,57.09,591.65Z"/><path class="cls-1" d="M188.64,684.31c53.77-15.9,65.27-52.76,65.27-52.76C183.57,686.34,116.61,663,116.61,663S134.87,700.2,188.64,684.31Z"/><path class="cls-1" d="M228.88,707.64c40.92-20.63,49.38-59.86,49.38-59.86s-51.74,54.45-116,53.44C162.26,701.22,188,728.27,228.88,707.64Z"/><path class="cls-1" d="M296.52,663s-19.95,41.26-70,65.27C226.52,728.27,297.87,729.62,296.52,663Z"/><path class="cls-1" d="M316.64,701.56c5.12-18.77-1.18-27.9-1.18-27.9s-1.78,16.57-28.75,49.71C286.71,723.37,308.06,724.51,316.64,701.56Z"/><path class="cls-1" d="M334.18,679.62a57.16,57.16,0,0,0-10.27,31.24,21.62,21.62,0,0,0,12.45-12.07C340.17,689,334.72,680.43,334.18,679.62Z"/><path class="cls-1" d="M342.17,764c49.11-5.17,77.29-38.92,82.69-45.65a197.07,197.07,0,0,1-160.3,27.39C273.63,751.38,302.81,768.09,342.17,764Z"/><path class="cls-1" d="M530.37,604.67c0,.76-30.18,8.37-30.18,8.37l-17.25-34.5c1.58-19.31,39.32-33.22,39.32-33.22-35.77-9.9-50.73,21.81-50.48,30.94s21.31,40.33,21.31,40.33l-16.49,8.87,9.89,2c7.1-5.32,28.41-8.37,28.41-8.37s-19.28,31.71-39.57,47.94S435,679.62,435,679.62s6.85,12.55,26.64,7,57.44-51.49,57.44-51.49l6.22,1.52-27.65,26.93a2.17,2.17,0,0,0-.32,2.72h0a2.17,2.17,0,0,0,3.2.53l26.54-21.3c-8.62,19.79-9.38,56.56-9.38,56.56-37.28,18.26-8.37,46.93-8.37,46.93l32.47-42.11s1-28.15,1-41.85,9.64-29.93,7.61-42.78S530.37,603.91,530.37,604.67Z"/><path class="cls-1" d="M277.58,530.44,279.27,581s14.54.51,14.88-12.51c.27-10.39-8.47-28.42-12-35.28A5.09,5.09,0,0,0,277.58,530.44Z"/><path class="cls-1" d="M301.93,582.76c3,12.61,13.19,9.9,13.19,9.9s.89-23.79-5.41-30.1C309.71,562.56,298.89,570.16,301.93,582.76Z"/><path class="cls-1" d="M155.89,133.9a8.8,8.8,0,0,0,6.61,8.6l2.13.55c5.83-6.34,4.82-19.78,5.07-59.35S161.59,0,161.59,0c-8.38,22.57-11.42,83.7-8.12,99.93C155.68,110.8,156,125.43,155.89,133.9Z"/><path class="cls-1" d="M236.71,581.74h4.48A4.76,4.76,0,0,0,246,577V186.8a2.62,2.62,0,0,1,4.49-1.82l3.31,3.36a2.58,2.58,0,0,1,.74,1.84V577a4.76,4.76,0,0,0,4.77,4.77h4.49a4.76,4.76,0,0,0,4.77-4.77V209.78a2.62,2.62,0,0,1,4.49-1.85l4.08,4.16a2.56,2.56,0,0,1,.74,1.84v282a4.76,4.76,0,0,0,4.77,4.77h4.49a4.76,4.76,0,0,0,4.77-4.77V233.53a2.62,2.62,0,0,1,4.49-1.85l4.08,4.15a2.64,2.64,0,0,1,.74,1.85V513.5a4.6,4.6,0,0,0,.15,1.15v0h0a23.86,23.86,0,0,0,5.05,2.3,27.63,27.63,0,0,0,5.49.57,23.42,23.42,0,0,0,15.9-6.16c-6.41-3.61-15.59-10.33-19.26-20.74-3.13-8.88-1.64-18.47,4.38-28.47l2.29-3.8V257.27a2.61,2.61,0,0,1,4.48-1.84l4.08,4.15a2.59,2.59,0,0,1,.75,1.85v202a3,3,0,0,0,.07.66,4.71,4.71,0,0,0,4.7,4.11h4.48a4.23,4.23,0,0,0,1.13-.16,4.7,4.7,0,0,0,3.64-4.61V251.53l-14-14.26-9.31-9.49-14-14.26L291.87,204l-14-14.26-9.31-9.48-13.92-14.16-8.65-8.8-14-14.28V577A4.76,4.76,0,0,0,236.71,581.74Z"/><path class="cls-1" d="M487.78,745.83a4.91,4.91,0,0,0-7.13-3.35,311.47,311.47,0,0,1-149.88,38.14c-172.92,0-313.1-140.18-313.1-313.13a312.5,312.5,0,0,1,116.86-244v23.13a45.52,45.52,0,0,0,4.1,18.85l1.67,3.59a26,26,0,0,1,2.33,10.77V570.67a8.09,8.09,0,0,0,8.13-8.11V111.42a4.6,4.6,0,0,0-4.6-4.6h-7a4.6,4.6,0,0,0-4.6,4.6v89.8C52.93,261.43,0,358.29,0,467.49c0,182.7,148.1,330.8,330.77,330.8a329.12,329.12,0,0,0,150.65-36.24,13,13,0,0,0,6.78-14.21Z"/><path class="cls-1" d="M891.74,444.77l-14.14-34L832.77,303.06c-8.51-20.46-37.48-20.46-46,0L742,410.78l-14.14,34L709.2,489.52a1.83,1.83,0,0,0,1.69,2.54h31.3a1.86,1.86,0,0,0,1.7-1.13l19.19-46.16H854l19.19,46.16a1.86,1.86,0,0,0,1.7,1.13h33.81a1.83,1.83,0,0,0,1.69-2.54Zm-114.52-34,27.91-67a3.67,3.67,0,0,1,6.78,0l27.91,67Z"/><path class="cls-1" d="M2241.55,445.28l-14.19-34.1-45-108.08c-8.53-20.51-37.6-20.51-46.14,0l-45,108.08-14.19,34.1-18.67,44.9a1.83,1.83,0,0,0,1.7,2.54h31.4a1.86,1.86,0,0,0,1.7-1.13l19.26-46.31h91.16l19.26,46.31a1.86,1.86,0,0,0,1.7,1.13h33.92a1.83,1.83,0,0,0,1.7-2.54Zm-114.89-34.1,28-67.27a3.69,3.69,0,0,1,6.81,0l28,67.27Z"/><path class="cls-1" d="M1101.73,461.51V488.2a3.88,3.88,0,0,1-3.89,3.86h-136a4.14,4.14,0,0,1-4.12-4.13V291.84a4.13,4.13,0,0,1,4.12-4.12H991a4.11,4.11,0,0,1,4.12,4.12V459.15h104.26A2.37,2.37,0,0,1,1101.73,461.51Z"/><path class="cls-1" d="M1322.23,390.22h-12.49a50.41,50.41,0,0,0,50.43-50.43v-1.61a50.44,50.44,0,0,0-50.43-50.46H1199a4.37,4.37,0,0,0-4.35,4.38V492.72h127.57a51.25,51.25,0,0,0,0-102.5ZM1234.17,321h61.41a27.17,27.17,0,1,1,0,54.34h-61.41Zm89.32,134a27.12,27.12,0,0,1-19.24,7.95h-70.08V408.58h70.08A27.2,27.2,0,0,1,1323.49,455Z"/><path class="cls-1" d="M1758.83,412.11A63.2,63.2,0,0,0,1743,287.72h-99a4.2,4.2,0,0,0-4.21,4.24V492.42a1,1,0,0,0,0,.3H1678V414.13h35.82l54.42,78.59h46.23ZM1738,386h-60v-62.1h60A29.14,29.14,0,0,1,1767.14,353v3.85a29.14,29.14,0,0,1-26.47,29A23.17,23.17,0,0,1,1738,386Z"/><path class="cls-1" d="M1974.6,412.11a63.2,63.2,0,0,0-15.86-124.39h-99a4.2,4.2,0,0,0-4.21,4.24V492.42a1,1,0,0,0,0,.3h38.22V414.13h35.82L1984,492.72h46.23ZM1953.79,386h-60v-62.1h60A29.14,29.14,0,0,1,1982.91,353v3.85a29.13,29.13,0,0,1-26.46,29A23.46,23.46,0,0,1,1953.79,386Z"/><path class="cls-1" d="M2492.3,465.15l-20-16.71a102.29,102.29,0,1,0-24.41,24.95L2470,491.86a3.07,3.07,0,0,0,4.34-.39l18.32-22A3.08,3.08,0,0,0,2492.3,465.15Zm-47.93-40L2411,397.32a3.1,3.1,0,0,0-4.34.42l-18.35,22a3.11,3.11,0,0,0,.42,4.35l29.94,25a66.14,66.14,0,1,1,25.67-23.91Z"/><path class="cls-1" d="M1993.85,563.12a10.27,10.27,0,0,0-10.27-10.27H1841.93a10.28,10.28,0,0,0,0,20.55h61.78V733.15a10.28,10.28,0,0,0,20.55,0V573.4h59.32A10.27,10.27,0,0,0,1993.85,563.12Z"/><path class="cls-1" d="M2311.9,552.85H2170.26a10.28,10.28,0,0,0,0,20.55H2232V733.15a10.27,10.27,0,1,0,20.54,0V573.4h59.32a10.28,10.28,0,0,0,0-20.55Z"/><path class="cls-1" d="M799.66,669.27a59,59,0,0,0-13.93-116.42h-82v186a10.35,10.35,0,1,0,20.7,0V671h49.63l62.63,74.5a10.35,10.35,0,0,0,15.84-13.32Zm-75.23-19V573.55h61.3a38.37,38.37,0,0,1,0,76.74Z"/><path class="cls-1" d="M1024.54,573.55a10.35,10.35,0,1,0,0-20.7H889.19V743.58h135.35a10.35,10.35,0,1,0,0-20.7H909.89V658.56h101.55a10.35,10.35,0,1,0,0-20.69H909.89V573.55Z"/><path class="cls-1" d="M1646.8,573.55a10.35,10.35,0,0,0,0-20.7H1511.45V743.58H1646.8a10.35,10.35,0,0,0,0-20.7H1532.15V658.56H1633.7a10.35,10.35,0,0,0,0-20.69H1532.15V573.55Z"/><path class="cls-1" d="M2490.93,722.88H2376.29V658.56h101.55a10.35,10.35,0,1,0,0-20.69H2376.29V573.55h114.64a10.35,10.35,0,1,0,0-20.7H2355.59V743.58h135.34a10.35,10.35,0,1,0,0-20.7Z"/><path class="cls-1" d="M1156,560.52a13.41,13.41,0,0,0-12.19-7.67h-.08a13.41,13.41,0,0,0-12.16,7.78c-7.13,15.2-26.49,56.46-44,94-8.76,18.8-17.06,36.68-23.13,49.92-12.31,26.83-12.31,26.83-9.1,31.88a10.36,10.36,0,0,0,17.92-.76,11.07,11.07,0,0,0,.8-2c1.42-3.57,9.18-20.55,21.78-47.7h97.72l23.86,49.45a10.35,10.35,0,1,0,18.64-9Zm-50.54,104.75c10.66-22.89,23.66-50.68,38.45-82.21l39.66,82.21Z"/><path class="cls-1" d="M2089.22,560.51a13.43,13.43,0,0,0-12.19-7.66H2077a13.43,13.43,0,0,0-12.16,7.78c-7.13,15.2-26.49,56.47-44,94-8.76,18.81-17.06,36.69-23.13,49.92-12.31,26.83-12.31,26.83-9.1,31.88a10.35,10.35,0,0,0,17.91-.76,10.57,10.57,0,0,0,.8-2c1.53-3.84,10-22.27,21.79-47.71h97.72l23.86,49.45a10.35,10.35,0,1,0,18.64-9Zm-50.54,104.76c11.73-25.17,25.35-54.29,38.44-82.2l39.67,82.2Z"/><path class="cls-1" d="M1396.8,723.56H1294.71V563.2a10.35,10.35,0,0,0-20.7,0V744.26H1396.8a10.35,10.35,0,1,0,0-20.7Z"/><path class="cls-1" d="M1782.86,648.69,1778,646.8a212,212,0,0,0-27.34-8.72c-11.12-2.69-22.33-6.08-29.09-12.61A29.19,29.19,0,0,1,1713,599a32.17,32.17,0,0,1,18.91-23.7c17.65-7.74,39.46,2,52.77,12.73l10.08,8.11A9.81,9.81,0,1,0,1807,580.83l-10.08-8.11c-18.43-14.82-47.27-26.66-72.93-15.4a51.73,51.73,0,0,0-30.35,38.19A48.5,48.5,0,0,0,1708,639.57c10.13,9.8,24.3,14.23,38.1,17.57a193.35,193.35,0,0,1,24.8,7.92c2.3.9,3.8,1.49,4.85,1.87v0c12.46,4.89,20.3,19,18.23,32.79-2.14,14.33-16.65,22.25-30.08,23.74-18,2-40.18-5.58-55.27-18.85L1694.23,692a9.81,9.81,0,0,0-13,14.72l14.35,12.63c17.12,15.06,40.82,24.06,62.37,24.06a73.09,73.09,0,0,0,8-.43c20.9-2.33,43.64-15.71,47.32-40.34C1816.78,679.66,1804,657,1782.86,648.69Z"/><path class="cls-1" d="M1584.56,287.72v116.7a88.33,88.33,0,0,1-176.65,0V287.72h36.69V409.15a51.62,51.62,0,1,0,103.24,0V287.72Z"/></g></g></svg>